# Blender v2.79 (sub 0) OBJ File: 'Tetratorus.blend'
# www.blender.org
mtllib halfpipe2.mtl
o Cube.001_Cube.003
v 0.249692 -0.750000 -0.750000
v -0.249230 0.750000 -0.750000
v 0.249230 0.750000 -0.750000
v 0.750000 -0.750000 -0.249846
v 0.375000 -0.900000 0.000026
v 0.375000 -0.900000 -0.249898
v -0.900000 -0.375000 -0.000026
v -0.412500 0.412500 0.000000
v -0.900000 0.375000 -0.000026
v -0.249692 -0.750000 -0.750000
v 0.124846 -0.900000 -0.499974
v -0.124846 -0.900000 -0.499974
v -0.750000 -0.750000 -0.249846
v -0.375000 -0.900000 0.000026
v -0.750000 -0.750000 0.250000
v -0.124846 0.900000 -0.499974
v -0.900000 -0.375000 0.249897
v 0.000000 -0.375000 0.249897
v 0.900000 -0.375000 0.249897
v 0.900000 -0.375000 -0.000026
v -0.750000 0.750000 -0.249384
v -0.375000 0.900000 0.000026
v -0.375000 0.900000 -0.249897
v 0.124846 0.900000 -0.499974
v 0.375000 0.900000 -0.249898
v 0.750000 0.750000 -0.249384
v 0.375000 0.900000 0.000026
v -0.750000 0.750000 0.250462
v 0.750000 -0.249692 0.750000
v -0.750000 0.249230 0.750000
v -0.750000 -0.249230 0.750000
v 0.750000 -0.750000 0.249846
v -0.412500 -0.412500 -0.000000
v 0.900000 0.124846 0.499974
v 0.750000 0.249692 0.750000
v 0.750000 0.750000 0.249846
v 0.900000 0.375000 -0.000026
v 0.750000 0.750000 -0.250000
v 0.900000 -0.124846 0.499974
v -0.900000 0.124846 0.499974
v 0.412500 -0.412500 -0.000000
v -0.750000 0.750000 0.249384
v -0.900000 0.375000 0.249897
v -0.900000 -0.124846 0.499974
v -0.750000 -0.750000 0.249384
v -0.750000 0.750000 -0.250462
v 0.000000 0.375000 0.249897
v 0.412500 0.412500 0.000000
v 0.900000 0.375000 0.249897
v 0.375000 0.000000 -0.249898
v -0.375000 -0.900000 -0.249897
v -0.375000 0.000000 -0.249897
v 0.750000 -0.750000 0.250000
v 0.750000 0.750000 0.250462
v 0.750000 -0.750000 -0.250000
v -0.750000 -0.750000 -0.250462
vt 0.209663 0.267316
vt 0.399656 0.647148
vt 0.320095 0.706612
vt 0.093288 0.356892
vt 0.037536 0.244222
vt 0.095722 0.236102
vt 0.588487 0.264059
vt 0.552977 0.633959
vt 0.563686 0.511362
vt 0.306982 0.190405
vt 0.176064 0.183745
vt 0.232457 0.127075
vt 0.532090 0.134987
vt 0.779465 0.052783
vt 0.682673 0.184028
vt 0.411348 0.739152
vt 0.638150 0.289542
vt 0.879798 0.262120
vt 1.024290 0.501730
vt 1.063694 0.488636
vt 0.514148 0.617498
vt 0.537547 0.755781
vt 0.485626 0.728294
vt 0.362855 0.777757
vt 0.300750 0.868124
vt 0.182553 0.816088
vt 0.279454 0.947233
vt 0.593385 0.643120
vt 0.945298 0.543927
vt 0.684979 0.526727
vt 0.712246 0.389938
vt 0.014080 0.382537
vt 0.063694 0.488636
vt 0.024290 0.501730
vt 0.618818 0.144724
vt 0.987010 0.662834
vt 0.933945 0.689620
vt 0.032090 0.865013
vt 0.088498 0.735937
vt 0.182673 0.815972
vt 0.988248 0.586045
vt 0.649776 0.464378
vt 1.052977 0.366041
vt 0.593215 0.643098
vt 0.603201 0.523761
vt 0.662342 0.391543
vt 0.682553 0.183912
vt 0.513990 0.617416
vt 0.718217 0.828534
vt 1.118818 0.855276
vt 1.033864 0.744178
vt 1.088498 0.735937
vt 0.168327 0.563737
vt 0.052977 0.366041
vt 0.374268 0.030506
vt 0.473787 0.376746
vt 0.014058 0.382549
vt 0.031879 0.864992
vt 1.031879 0.864992
vt 0.093312 0.356889
vt 0.033864 0.744178
vt 0.531879 0.135008
vt 0.118818 0.855276
vt 1.037536 0.244222
vt 1.014058 0.382549
vt 1.014080 0.382537
vt 1.032090 0.865013
vn 0.0000 0.0000 -1.0000
vn 0.3714 -0.9285 0.0000
vn -0.0001 -0.0000 1.0000
vn 0.0000 -0.8575 -0.5145
vn -0.3714 -0.9285 0.0000
vn 0.0000 -0.0000 1.0000
vn 0.0000 1.0000 0.0000
vn -0.3714 0.9285 0.0000
vn -0.3485 0.8701 -0.3486
vn 0.0000 0.8575 -0.5145
vn 0.3485 0.8701 -0.3486
vn 0.3714 0.9285 0.0000
vn 0.0000 0.8579 0.5138
vn 0.9285 -0.3714 0.0000
vn 0.0739 0.9611 -0.2663
vn 0.8575 0.0000 0.5145
vn 0.9285 0.3714 0.0000
vn 0.0000 0.9889 -0.1484
vn -0.0739 0.9611 -0.2663
vn -0.9285 0.3714 0.0000
vn -0.8701 0.3485 0.3486
vn -0.8575 0.0000 0.5145
vn -0.8701 -0.3485 0.3486
vn -0.9285 -0.3714 0.0000
vn -0.8579 -0.0000 -0.5138
vn 0.0000 -1.0000 0.0000
vn 0.0739 -0.9611 -0.2663
vn 0.0000 -0.9889 -0.1484
vn -1.0000 0.0000 0.0000
vn -0.9611 0.0739 0.2663
vn 1.0000 -0.0000 0.0000
vn 0.9611 0.0739 0.2663
vn 0.9889 0.0000 0.1484
vn 0.9971 -0.0767 0.0000
vn 0.0000 0.0001 -1.0000
vn 0.3414 0.4645 -0.8171
vn 0.6061 -0.6700 -0.4286
vn 0.3415 -0.4645 -0.8171
vn -0.3414 0.4645 -0.8171
vn -0.6061 -0.6700 -0.4286
vn -0.6060 0.6702 -0.4285
vn -0.3415 -0.4645 -0.8171
vn 0.3518 -0.9322 0.0849
vn -0.3518 -0.9322 0.0849
vn -0.1332 -0.9471 0.2921
vn -0.2369 -0.9478 0.2133
vn -0.1788 -0.9340 0.3094
vn 0.2369 -0.9478 0.2133
vn 0.1329 0.9471 0.2920
vn 0.3580 0.9277 0.1059
vn 0.8932 0.0035 0.4496
vn -0.8936 -0.0000 0.4488
vn -0.4645 -0.3414 0.8171
vn 0.6700 -0.6061 0.4286
vn 0.4645 -0.3415 0.8171
vn -0.4645 0.3414 0.8171
vn 0.6700 0.6061 0.4286
vn -0.6702 0.6060 0.4285
vn 0.4645 0.3415 0.8171
vn 0.9322 -0.3518 -0.0849
vn 0.9322 0.3518 -0.0849
vn 0.9471 0.1332 -0.2921
vn 0.9478 0.2369 -0.2133
vn 0.9797 0.1875 0.0711
vn 0.9478 -0.2369 -0.2133
vn -0.9471 -0.1329 -0.2920
vn -0.9323 -0.3517 -0.0848
vn -0.0000 -0.8936 -0.4488
vn 0.0000 0.8936 -0.4488
vn 0.9797 -0.1875 0.0711
vn -0.6717 0.6717 0.3126
vn -0.7071 -0.7071 -0.0000
vn -0.1874 0.9797 -0.0717
vn 0.7308 -0.6776 -0.0825
vn 0.6060 0.6702 -0.4285
vn 0.1332 -0.9471 0.2921
vn 0.1788 -0.9340 0.3094
vn -0.1329 0.9471 0.2920
vn -0.3517 0.9323 0.0848
vn -0.6702 -0.6060 0.4285
vn 0.9471 -0.1332 -0.2921
vn -0.9471 0.1329 -0.2920
vn -0.9323 0.3517 -0.0848
usemtl Material.002
s off
f 1/1/1 2/2/1 3/3/1
f 4/4/2 5/5/2 6/6/2
f 7/7/3 8/8/3 9/9/3
f 10/10/4 11/11/4 12/12/4
f 13/13/5 14/14/5 15/15/5
f 11/11/6 16/16/6 12/12/6
f 7/7/7 17/17/7 18/18/7
f 19/19/7 20/20/7 18/18/7
f 21/21/8 22/22/8 23/23/8
f 2/2/9 23/23/9 16/16/9
f 24/24/10 2/2/10 16/16/10
f 3/3/11 25/25/11 26/26/11
f 27/27/12 26/26/12 25/25/12
f 28/28/13 27/27/13 22/22/13
f 29/29/6 30/30/6 31/31/6
f 32/32/14 20/33/14 19/34/14
f 7/7/15 18/18/15 33/35/15
f 29/29/16 34/36/16 35/37/16
f 36/38/17 37/39/17 38/40/17
f 39/41/1 40/42/1 34/36/1
f 18/18/18 41/43/18 33/35/18
f 41/43/19 18/18/19 20/20/19
f 42/44/20 9/9/20 43/45/20
f 30/30/21 43/45/21 40/42/21
f 31/31/22 40/42/22 44/46/22
f 31/31/23 17/17/23 45/47/23
f 7/7/24 45/47/24 17/17/24
f 46/48/25 7/7/25 9/9/25
f 43/45/26 9/9/26 47/49/26
f 8/8/27 47/49/27 9/9/27
f 8/8/28 48/50/28 47/49/28
f 49/51/26 47/49/26 37/52/26
f 6/6/29 5/5/29 50/53/29
f 41/54/30 50/53/30 5/5/30
f 27/27/29 25/25/29 50/53/29
f 51/55/31 52/56/31 14/14/31
f 14/14/32 52/56/32 33/35/32
f 33/35/33 52/56/33 8/8/33
f 23/23/34 22/22/34 8/8/34
f 27/27/35 8/8/35 22/22/35
f 1/1/1 10/10/1 2/2/1
f 4/4/2 53/57/2 5/5/2
f 7/7/3 33/35/3 8/8/3
f 10/10/4 1/1/4 11/11/4
f 13/13/5 51/55/5 14/14/5
f 11/11/6 24/24/6 16/16/6
f 21/21/8 28/28/8 22/22/8
f 2/2/9 21/21/9 23/23/9
f 24/24/10 3/3/10 2/2/10
f 3/3/11 24/24/11 25/25/11
f 27/27/12 54/58/12 26/26/12
f 28/28/13 54/59/13 27/27/13
f 29/29/6 35/37/6 30/30/6
f 32/32/14 55/60/14 20/33/14
f 29/29/16 39/41/16 34/36/16
f 36/38/17 49/61/17 37/39/17
f 39/41/1 44/46/1 40/42/1
f 42/44/20 46/48/20 9/9/20
f 30/30/21 42/44/21 43/45/21
f 31/31/22 30/30/22 40/42/22
f 31/31/23 44/46/23 17/17/23
f 7/7/24 56/62/24 45/47/24
f 46/48/25 56/62/25 7/7/25
f 27/27/35 48/63/35 8/8/35
s 1
f 3/3/36 4/4/37 1/1/38
f 2/2/39 13/13/40 21/21/41
f 10/10/42 51/55/43 13/13/40
f 1/1/38 6/6/44 11/11/45
f 15/15/46 5/64/47 53/65/48
f 16/16/49 23/23/50 52/56/51
f 6/6/44 50/53/52 11/11/45
f 31/31/53 32/66/54 29/29/55
f 30/30/56 36/67/57 42/44/58
f 35/37/59 49/51/60 36/67/57
f 29/29/55 19/19/61 39/41/62
f 38/40/63 20/33/64 55/60/65
f 40/42/66 43/45/67 47/49/68
f 19/19/61 18/18/69 39/41/62
f 37/39/70 41/54/71 20/33/64
f 37/52/70 47/49/68 48/50/72
f 41/54/71 48/63/72 50/53/52
f 27/27/73 50/53/52 48/63/72
f 52/56/51 23/23/50 8/8/74
f 3/3/36 26/26/75 4/4/37
f 2/2/39 10/10/42 13/13/40
f 10/10/42 12/12/76 51/55/43
f 1/1/38 4/4/37 6/6/44
f 15/15/46 14/14/77 5/64/47
f 52/56/51 51/55/43 12/12/76
f 12/12/76 16/16/49 52/56/51
f 24/24/78 11/11/45 50/53/52
f 50/53/52 25/25/79 24/24/78
f 31/31/53 45/47/80 32/66/54
f 30/30/56 35/37/59 36/67/57
f 35/37/59 34/36/81 49/51/60
f 29/29/55 32/66/54 19/19/61
f 38/40/63 37/39/70 20/33/64
f 47/49/68 49/51/60 34/36/81
f 34/36/81 40/42/66 47/49/68
f 44/46/82 39/41/62 18/18/69
f 18/18/69 17/17/83 44/46/82
f 37/39/70 48/63/72 41/54/71
