# Blender v2.79 (sub 0) OBJ File: 'spacebrickGeomKarton.blend'
# www.blender.org
mtllib Karton.mtl
o Cube.001
v 2.000000 0.000000 1.000000
v -1.512556 -0.165000 0.835000
v 1.517064 -0.162936 0.837062
v -0.005156 -1.679731 -0.679731
v 1.679743 -0.001247 0.679741
v -1.680380 -0.004577 0.680380
v 0.000000 -2.000000 -1.000000
v -0.165000 -1.515785 -0.835000
v -0.165001 1.502874 -0.835000
v 0.165000 -1.522447 -0.835000
v 0.164999 1.509308 -0.835000
v -2.000000 0.000000 1.000000
v -1.519048 0.160952 0.839048
v -0.000000 2.000000 -1.000000
v 1.514726 0.165275 0.834724
v -0.003672 1.683671 -0.683671
v -0.165000 -0.006456 -0.835000
v -1.751090 -0.004577 0.609669
v -0.235710 -1.515785 -0.905711
v -0.235711 -0.006456 -0.905711
v 0.165000 -0.006570 -0.835000
v 1.750453 -0.001247 0.609030
v 0.235710 1.509308 -0.905711
v 0.235710 -0.006570 -0.905711
v -0.002161 0.163114 0.836886
v 1.514726 0.235985 0.905435
v -0.003672 1.754382 -0.612961
v -0.002161 0.233824 0.907597
v 0.002254 -0.163968 0.836031
v -1.512556 -0.165000 0.835000
v -0.005156 -1.679731 -0.679731
v 0.002254 -0.163968 0.836031
v -1.512556 -0.235711 0.905711
v -0.005156 -1.750442 -0.609021
v 0.002254 -0.234679 0.906742
v 1.849389 -0.000000 0.933465
v -1.512556 -0.109546 0.821137
v 1.517064 -0.107482 0.823199
v -0.005156 -1.624277 -0.693595
v 1.528140 0.047934 0.675646
v -1.528195 -0.054101 0.676284
v 0.000038 -1.849404 -0.933463
v -0.159870 -1.401579 -0.769116
v -0.109546 1.502874 -0.821136
v 0.109546 -1.522447 -0.821137
v 0.159827 1.395053 -0.769113
v -1.849389 -0.000000 0.933466
v -1.519048 0.105498 0.825184
v -0.000000 1.849389 -0.933466
v 1.407884 0.160309 0.773296
v 0.045803 1.531871 -0.679587
v -0.151766 -0.092742 -0.780064
v -1.542645 -0.056744 0.598574
v -0.230695 -1.404727 -0.841649
v -0.235740 -0.093548 -0.842803
v 0.151674 0.079821 -0.780084
v 1.542907 0.050346 0.597943
v 0.230695 1.398250 -0.841649
v 0.235697 0.080672 -0.842780
v 0.096021 0.148141 0.774207
v 1.396757 0.230502 0.837608
v 0.048446 1.546425 -0.601890
v 0.079711 0.233934 0.848285
v 0.002254 -0.108514 0.822168
v -1.432030 -0.207293 0.824427
v -0.041495 -1.553740 -0.648234
v -0.053090 -0.213379 0.823678
v -1.394731 -0.230334 0.837809
v -0.056673 -1.542827 -0.597922
v -0.079793 -0.234711 0.847491
vn 0.0000 0.7071 0.7071
vn 0.0000 -0.7071 0.7071
vn -0.7071 -0.0000 -0.7071
vn 0.7071 0.0000 -0.7071
vn 0.0006 1.0000 -0.0006
vn -0.4075 -0.8172 0.4075
vn 0.0018 -1.0000 0.0018
vn 0.4075 0.8172 0.4075
vn -1.0000 -0.0005 0.0005
vn 0.0020 -0.7071 0.7071
vn 0.8165 0.4082 -0.4082
vn 0.0000 0.0000 1.0000
vn 1.0000 -0.0024 -0.0024
vn -0.8178 -0.4069 -0.4069
vn -0.0010 0.7071 0.7071
vn 0.0060 -0.6985 -0.7156
vn -0.0000 0.7160 -0.6981
vn 0.0088 0.7026 -0.7115
vn -0.0087 0.7027 -0.7114
vn 0.7186 0.0014 0.6954
vn -0.7111 -0.0000 0.7031
vn -0.5972 0.1896 0.7794
vn 0.0096 -0.7307 -0.6826
vn -0.0231 -0.7377 -0.6748
vn 0.7311 -0.0099 0.6823
vn -0.7313 0.0107 0.6819
vn 0.7311 0.0107 0.6821
vn 0.0066 -0.9994 0.0328
vn 0.7409 0.0034 0.6717
vn -0.5986 0.0104 0.8010
vn 0.3889 0.8223 -0.4154
vn -0.0080 0.9995 0.0295
vn -0.7406 -0.0034 0.6719
vn -0.3885 -0.8223 -0.4158
vn 0.5981 -0.0104 0.8014
vn 0.9994 0.0005 -0.0341
vn -0.0074 -0.7415 -0.6709
vn -0.0044 0.6530 -0.7573
vn -0.8187 -0.4530 0.3528
vn 0.5161 0.6353 -0.5745
vn -0.8657 0.3666 -0.3407
vn 0.7618 0.6323 0.1412
vn -0.0006 -0.0141 -0.9999
vn 0.0074 0.7415 -0.6709
vn 0.5663 0.7989 -0.2026
vn 0.0024 -0.7462 -0.6657
vn -0.0034 -0.7110 -0.7032
vn -0.0000 -0.7322 -0.6811
vn -0.0000 0.7159 -0.6982
vn -0.0000 0.7161 -0.6980
vn -0.0375 0.7282 -0.6843
vn 0.0392 0.7290 -0.6834
vn 0.7176 -0.0011 0.6965
vn 0.7108 0.0000 0.7034
vn -0.7188 -0.0013 0.6953
vn -0.7175 0.0010 0.6965
vn -0.7307 -0.0101 0.6826
vn -0.1400 -0.6306 -0.7634
vn 0.1913 -0.5960 -0.7799
vn 0.6331 0.1362 0.7620
vn -0.6324 -0.1373 0.7624
vn 0.5925 -0.1961 0.7813
vn -0.0056 -0.9998 0.0204
vn -0.7154 -0.0021 0.6987
vn 0.6152 0.7757 -0.1408
vn 0.0033 0.9998 0.0180
vn -0.6150 -0.7758 -0.1410
vn 0.7152 0.0021 0.6989
vn 0.9897 0.1160 0.0836
vn -0.0068 0.6749 -0.7378
vn -0.7735 -0.6177 0.1420
vn -0.8068 0.4198 -0.4158
vn -0.7662 0.4703 -0.4379
vn -0.5841 0.2042 -0.7855
vn 0.0007 -0.0331 -0.9995
vn 0.7334 0.6757 0.0747
vn -0.0027 -0.5055 -0.8628
vn -0.7704 0.1546 0.6185
vn -0.2425 -0.0000 0.9701
vn 0.2088 0.5778 -0.7890
vn -0.2100 -0.5801 -0.7870
vn -0.0017 0.2425 -0.9701
vn 0.5798 0.2102 0.7872
vn 0.6177 0.4876 0.6171
vn 0.2425 -0.0000 0.9701
vn -0.6164 -0.4880 0.6181
vn -0.4880 -0.6174 -0.6169
vn 0.0008 -0.2425 -0.9701
vn 1.0000 -0.0010 -0.0039
vn -0.9588 0.0326 0.2822
vn -0.1596 0.7528 -0.6386
vn 0.1588 -0.7557 -0.6353
vn -0.0342 0.9586 -0.2826
vn 0.7557 -0.1588 0.6353
vn 0.3049 0.9151 0.2639
vn 0.9584 -0.0325 0.2836
vn -0.3039 -0.9144 0.2673
vn -0.9162 -0.3056 -0.2592
usemtl Material
s off
f 1//1 15//1 25//1
f 29//2 1//2 12//2
f 4//2 1//2 3//2
f 12//2 4//2 2//2
f 7//3 8//3 17//3
f 21//4 7//4 14//4
f 5//4 14//4 1//4
f 16//1 12//1 13//1
f 1//1 16//1 15//1
f 6//3 14//3 9//3
f 5//4 7//4 10//4
f 7//3 6//3 8//3
f 17//5 18//5 6//5
f 18//3 20//3 19//3
f 8//4 20//4 17//4
f 8//6 18//6 19//6
f 21//7 22//7 5//7
f 23//4 22//4 24//4
f 11//8 22//8 23//8
f 11//3 24//3 21//3
f 25//9 27//9 16//9
f 27//1 28//1 26//1
f 25//10 26//10 28//10
f 15//11 27//11 26//11
f 4//12 32//12 31//12
f 32//13 34//13 31//13
f 2//12 31//12 30//12
f 29//12 30//12 32//12
f 33//2 34//2 35//2
f 30//14 34//14 33//14
f 32//15 33//15 35//15
f 25//1 13//1 12//1
f 12//1 1//1 25//1
f 12//2 2//2 29//2
f 29//2 3//2 1//2
f 4//2 7//2 1//2
f 12//2 7//2 4//2
f 17//3 9//3 14//3
f 14//3 7//3 17//3
f 14//4 11//4 21//4
f 21//4 10//4 7//4
f 5//4 11//4 14//4
f 16//1 14//1 12//1
f 1//1 14//1 16//1
f 6//3 12//3 14//3
f 5//4 1//4 7//4
f 7//3 12//3 6//3
f 17//5 20//5 18//5
f 8//4 19//4 20//4
f 8//6 6//6 18//6
f 21//7 24//7 22//7
f 11//8 5//8 22//8
f 11//3 23//3 24//3
f 25//9 28//9 27//9
f 25//10 15//10 26//10
f 15//11 16//11 27//11
f 4//12 29//12 32//12
f 32//13 35//13 34//13
f 2//12 4//12 31//12
f 29//12 2//12 30//12
f 30//14 31//14 34//14
f 32//15 30//15 33//15
f 36//16 60//16 50//16
f 64//17 47//17 36//17
f 39//18 38//18 36//18
f 47//19 37//19 39//19
f 42//20 52//20 43//20
f 56//21 49//21 42//21
f 40//22 36//22 49//22
f 51//23 48//23 47//23
f 36//24 50//24 51//24
f 41//25 44//25 49//25
f 40//26 45//26 42//26
f 42//27 43//27 41//27
f 52//28 41//28 53//28
f 53//29 54//29 55//29
f 43//30 52//30 55//30
f 43//31 54//31 53//31
f 56//32 40//32 57//32
f 58//33 59//33 57//33
f 46//34 58//34 57//34
f 46//35 56//35 59//35
f 60//36 51//36 62//36
f 62//37 61//37 63//37
f 60//38 63//38 61//38
f 50//39 61//39 62//39
f 39//40 66//40 67//40
f 67//41 66//41 69//41
f 37//42 65//42 66//42
f 64//43 67//43 65//43
f 68//44 70//44 69//44
f 65//45 68//45 69//45
f 67//46 70//46 68//46
f 60//47 47//47 48//47
f 47//48 60//48 36//48
f 47//49 64//49 37//49
f 64//50 36//50 38//50
f 39//51 36//51 42//51
f 47//52 39//52 42//52
f 52//53 49//53 44//53
f 49//54 52//54 42//54
f 49//55 56//55 46//55
f 56//56 42//56 45//56
f 40//57 49//57 46//57
f 51//58 47//58 49//58
f 36//59 51//59 49//59
f 41//60 49//60 47//60
f 40//61 42//61 36//61
f 42//62 41//62 47//62
f 52//63 53//63 55//63
f 43//64 55//64 54//64
f 43//65 53//65 41//65
f 56//66 57//66 59//66
f 46//67 57//67 40//67
f 46//68 59//68 58//68
f 60//69 62//69 63//69
f 60//70 61//70 50//70
f 50//71 62//71 51//71
f 39//72 67//72 64//72
f 67//73 69//73 70//73
f 37//74 66//74 39//74
f 64//75 65//75 37//75
f 65//76 69//76 66//76
f 67//77 68//77 65//77
f 4//78 38//78 39//78
f 17//79 44//79 9//79
f 10//80 40//80 5//80
f 9//81 41//81 6//81
f 25//82 48//82 13//82
f 13//83 51//83 16//83
f 6//84 52//84 17//84
f 21//85 45//85 10//85
f 5//86 56//86 21//86
f 16//87 60//87 25//87
f 3//88 64//88 38//88
f 29//89 39//89 64//89
f 4//78 3//78 38//78
f 17//90 52//90 44//90
f 10//91 45//91 40//91
f 9//92 44//92 41//92
f 25//93 60//93 48//93
f 13//94 48//94 51//94
f 6//95 41//95 52//95
f 21//96 56//96 45//96
f 5//97 40//97 56//97
f 16//98 51//98 60//98
f 3//88 29//88 64//88
f 29//89 4//89 39//89
