# Blender 3.4.1
# www.blender.org
mtllib lasercut2.mtl
o Cube.006
v 0.100000 -0.068092 0.073329
v 0.100000 -0.712817 -0.571396
v -0.100000 -0.068092 0.073329
v -0.100000 -0.712817 -0.571396
v 0.100000 -0.708198 0.639777
v 0.100000 -0.707236 0.406111
v -0.100000 -0.708198 0.639777
v -0.100000 -0.707225 0.403468
v 0.100000 -0.458200 0.640807
v 0.100000 -0.457238 0.407140
v -0.100000 -0.458200 0.640806
v -0.100000 -0.457228 0.404497
v 0.100000 0.642107 0.642107
v -0.100000 -0.571396 -0.712817
v -0.100000 0.073329 -0.068092
v 0.100000 0.073329 -0.068092
v 0.100000 -0.571396 -0.712817
v -0.100000 0.406111 -0.707236
v 0.100000 0.639777 -0.708198
v 0.100000 0.403468 -0.707225
v -0.100000 0.639777 -0.708198
v -0.100000 0.640806 -0.458200
v -0.100000 0.407140 -0.457238
v 0.100000 0.640807 -0.458200
v 0.100000 0.404497 -0.457228
v -0.100000 0.642107 0.642107
v -0.052991 1.664957 -0.709936
v -0.100000 1.664957 -0.709936
v -0.066329 1.756227 -0.492320
v 0.100000 1.756227 -0.492320
v 0.100000 1.664957 -0.709936
v -0.100000 1.756227 -0.492320
v 0.100000 1.671726 -0.708097
v 0.100000 1.665595 -0.708378
v 0.100000 1.741977 -0.675152
v 0.100000 1.748109 -0.668430
v 0.100000 1.697161 -0.701814
v 0.100000 1.720882 -0.690690
v 0.100000 1.784814 -0.556654
v 0.100000 1.778531 -0.531218
v 0.100000 1.767407 -0.507498
v 0.100000 1.782085 -0.608729
v 0.100000 1.759635 -0.655797
v 0.100000 1.773178 -0.633369
v 0.100000 1.786014 -0.582826
v -0.100000 1.784814 -0.556654
v -0.100000 1.778531 -0.531218
v -0.100000 1.767407 -0.507498
v -0.100000 1.782085 -0.608729
v -0.100000 1.748109 -0.668430
v -0.100000 1.759635 -0.655797
v -0.100000 1.773178 -0.633369
v -0.100000 1.786014 -0.582826
v -0.100000 1.671726 -0.708097
v -0.100000 1.665595 -0.708378
v -0.100000 1.741977 -0.675152
v -0.100000 1.697161 -0.701814
v -0.100000 1.720882 -0.690690
v 0.052990 -0.709936 1.664957
v -0.100001 -0.709936 1.664957
v 0.099999 -0.492318 1.756225
v -0.066329 -0.492317 1.756225
v 0.099999 -0.709936 1.664957
v -0.100001 -0.492317 1.756225
v 0.099999 -0.675152 1.741976
v 0.099999 -0.668430 1.748109
v 0.099999 -0.690690 1.720882
v 0.099999 -0.701814 1.697161
v 0.099999 -0.708097 1.671726
v 0.099999 -0.708378 1.665595
v 0.099999 -0.655797 1.759634
v 0.099999 -0.608730 1.782085
v 0.099999 -0.633369 1.773177
v 0.099999 -0.582826 1.786014
v 0.099999 -0.531219 1.778531
v 0.099999 -0.556654 1.784814
v 0.099999 -0.507498 1.767406
v -0.100001 -0.675152 1.741976
v -0.100001 -0.668430 1.748109
v -0.100001 -0.690690 1.720882
v -0.100001 -0.701814 1.697161
v -0.100001 -0.708097 1.671726
v -0.100001 -0.708378 1.665595
v -0.100001 -0.655797 1.759634
v -0.100001 -0.608730 1.782085
v -0.100001 -0.633369 1.773177
v -0.100001 -0.582826 1.786014
v -0.100001 -0.531219 1.778531
v -0.100001 -0.556654 1.784814
v -0.100001 -0.507498 1.767406
vn -0.0000 0.7071 -0.7071
vn -0.0000 -1.0000 -0.0041
vn -0.0000 -0.7071 0.7071
vn -0.0000 -0.0041 -1.0000
vn -0.0000 -0.7071 -0.7071
vn -0.0000 -1.0000 0.0057
vn -0.0000 -1.0000 -0.0017
vn -0.0000 0.0041 -1.0000
vn -0.0132 -0.0041 0.9999
vn -0.0000 0.0057 -1.0000
vn 0.0132 0.9999 -0.0041
vn -0.0000 -1.0000 0.0041
vn -0.0000 -0.0017 -1.0000
vn -0.0000 0.7135 0.7007
vn -0.0000 0.7007 0.7135
vn 1.0000 -0.0000 -0.0000
vn -1.0000 -0.0000 -0.0000
vn -0.0001 -1.0000 0.0057
vn 0.0001 0.0057 -1.0000
vn -0.0000 0.9254 -0.3790
vn -0.0000 0.8052 0.5931
vn -0.0000 0.9054 0.4246
vn -0.0000 0.9708 0.2398
vn -0.0000 0.9990 0.0458
vn -0.0000 0.9887 -0.1500
vn -0.0000 0.9404 -0.3400
vn -0.0000 0.8560 -0.5169
vn -0.0000 0.7388 -0.6740
vn -0.0000 0.5931 -0.8052
vn -0.0000 0.4246 -0.9054
vn -0.0000 0.2398 -0.9708
vn -0.0000 0.0458 -0.9989
vn -0.0000 -0.3789 0.9254
vn -0.0000 0.5931 0.8052
vn -0.0000 0.4246 0.9054
vn -0.0000 0.2398 0.9708
vn -0.0000 0.0458 0.9990
vn -0.0000 -0.1500 0.9887
vn -0.0000 -0.3400 0.9404
vn -0.0000 -0.5169 0.8560
vn -0.0000 -0.6740 0.7387
vn -0.0000 -0.8052 0.5931
vn -0.0000 -0.9054 0.4246
vn -0.0000 -0.9708 0.2398
vn -0.0000 -0.9990 0.0458
vt 0.609304 0.750000
vt 0.609304 0.750000
vt 0.390696 0.750000
vt 0.390696 0.750000
vt 0.000000 0.000000
vt 0.000000 0.000000
vt 0.000000 0.000000
vt 0.000000 0.000000
vt 0.000000 0.000000
vt 0.000000 0.000000
vt 0.000000 0.000000
vt 0.000000 0.000000
vt 0.000000 0.000000
vt 0.609304 0.750000
vt 0.609304 0.750000
vt 0.390696 0.750000
vt 0.390696 0.750000
vt 0.000000 0.000000
vt 0.000000 0.000000
vt 0.000000 0.000000
vt 0.000000 0.000000
vt 0.000000 0.000000
vt 0.000000 0.000000
vt 0.000000 0.000000
vt 0.000000 0.000000
vt 0.000000 0.000000
vt 0.000000 0.000000
vt 0.493376 0.824652
vt 0.000000 0.000000
vt 0.487500 0.824652
vt 0.000000 0.000000
vt 0.991234 0.743163
vt 0.000000 0.000000
vt 0.991234 0.760307
vt 0.000000 0.000000
vt 0.512500 0.824652
vt 0.000000 0.000000
vt 0.991234 0.739693
vt 0.000000 0.000000
vt 0.656250 0.760307
vt 0.000000 0.000000
vt 0.512500 0.824862
vt 0.648929 0.760307
vt 0.000000 0.000000
vt 0.750000 0.760307
vt 0.000000 0.000000
vt 0.760852 0.760307
vt 0.000000 0.000000
vt 0.687500 0.760307
vt 0.000000 0.000000
vt 0.718750 0.760307
vt 0.000000 0.000000
vt 0.906250 0.760307
vt 0.000000 0.000000
vt 0.937500 0.760307
vt 0.000000 0.000000
vt 0.968750 0.760307
vt 0.000000 0.000000
vt 0.843750 0.760307
vt 0.000000 0.000000
vt 0.781250 0.760307
vt 0.000000 0.000000
vt 0.812500 0.760307
vt 0.000000 0.000000
vt 0.875000 0.760307
vt 0.000000 0.000000
vt 0.906250 0.739693
vt 0.000000 0.000000
vt 0.937500 0.739693
vt 0.000000 0.000000
vt 0.968750 0.739693
vt 0.000000 0.000000
vt 0.843750 0.739693
vt 0.000000 0.000000
vt 0.760852 0.739693
vt 0.000000 0.000000
vt 0.781250 0.739693
vt 0.000000 0.000000
vt 0.812500 0.739693
vt 0.000000 0.000000
vt 0.875000 0.739693
vt 0.000000 0.000000
vt 0.656250 0.739693
vt 0.000000 0.000000
vt 0.487500 0.824863
vt 0.648929 0.739693
vt 0.000000 0.000000
vt 0.750000 0.739693
vt 0.000000 0.000000
vt 0.687500 0.739693
vt 0.000000 0.000000
vt 0.718750 0.739693
vt 0.000000 0.000000
vt 0.493376 0.824652
vt 0.000000 0.000000
vt 0.512500 0.824652
vt 0.000000 0.000000
vt 0.991238 0.739693
vt 0.000000 0.000000
vt 0.991239 0.756837
vt 0.000000 0.000000
vt 0.487500 0.824652
vt 0.000000 0.000000
vt 0.991239 0.760307
vt 0.000000 0.000000
vt 0.750000 0.739693
vt 0.000000 0.000000
vt 0.760853 0.739693
vt 0.000000 0.000000
vt 0.718750 0.739693
vt 0.000000 0.000000
vt 0.687500 0.739693
vt 0.000000 0.000000
vt 0.656250 0.739693
vt 0.000000 0.000000
vt 0.487500 0.824863
vt 0.648929 0.739693
vt 0.000000 0.000000
vt 0.781250 0.739693
vt 0.000000 0.000000
vt 0.843750 0.739693
vt 0.000000 0.000000
vt 0.812500 0.739693
vt 0.000000 0.000000
vt 0.875000 0.739693
vt 0.000000 0.000000
vt 0.937500 0.739693
vt 0.000000 0.000000
vt 0.906250 0.739693
vt 0.000000 0.000000
vt 0.968750 0.739693
vt 0.000000 0.000000
vt 0.750000 0.760307
vt 0.000000 0.000000
vt 0.760853 0.760307
vt 0.000000 0.000000
vt 0.718750 0.760307
vt 0.000000 0.000000
vt 0.687500 0.760307
vt 0.000000 0.000000
vt 0.656250 0.760307
vt 0.000000 0.000000
vt 0.512500 0.824863
vt 0.648929 0.760307
vt 0.000000 0.000000
vt 0.781250 0.760307
vt 0.000000 0.000000
vt 0.843750 0.760307
vt 0.000000 0.000000
vt 0.812500 0.760307
vt 0.000000 0.000000
vt 0.875000 0.760307
vt 0.000000 0.000000
vt 0.937500 0.760307
vt 0.000000 0.000000
vt 0.906250 0.760307
vt 0.000000 0.000000
vt 0.968750 0.760307
s 0
usemtl Material
f 2/2/1 3/3/1 1/1/1
f 10/10/2 9/9/2 11/11/2
f 14/14/3 16/16/3 15/15/3
f 23/23/4 22/22/4 24/24/4
f 3/3/5 16/16/5 1/1/5
f 2/2/6 8/8/6 4/4/6
f 59/93/7 60/95/7 7/7/7
f 9/9/8 7/7/8 11/11/8
f 6/6/9 10/10/9 12/12/9
f 14/14/10 20/20/10 17/17/10
f 18/18/11 23/23/11 25/25/11
f 21/21/12 19/19/12 24/24/12
f 19/19/13 21/21/13 28/29/13 27/27/13
f 30/33/14 29/31/14 13/13/14
f 61/97/15 13/13/15 62/99/15
f 16/16/16 24/24/16 13/13/16
f 15/15/17 26/26/17 22/22/17
f 2/2/1 4/4/1 3/3/1
f 10/10/2 11/11/2 12/12/2
f 14/14/3 17/17/3 16/16/3
f 23/23/4 24/24/4 25/25/4
f 3/3/5 15/15/5 16/16/5
f 2/2/18 6/6/18 8/8/18
f 5/5/7 63/101/7 59/93/7 7/7/7
f 9/9/8 5/5/8 7/7/8
f 6/6/9 12/12/9 8/8/9
f 14/14/19 18/18/19 20/20/19
f 18/18/11 25/25/11 20/20/11
f 21/21/12 24/24/12 22/22/12
f 19/19/13 27/27/13 31/35/13
f 32/37/14 26/26/14 13/13/14 29/31/14
f 62/99/15 13/13/15 26/26/15 64/103/15
f 6/6/16 2/2/16 10/10/16
f 2/2/16 1/1/16 10/10/16
f 16/16/16 17/17/16 25/25/16
f 17/17/16 20/20/16 25/25/16
f 9/9/16 10/10/16 1/1/16
f 16/16/16 25/25/16 24/24/16
f 9/9/16 1/1/16 13/13/16
f 1/1/16 16/16/16 13/13/16
f 5/5/16 9/9/16 66/107/16 65/105/16 67/109/16 68/111/16 69/113/16 70/115/16 63/101/16
f 37/48/16 38/50/16 35/44/16 36/46/16 24/24/16 19/19/16 31/35/16 34/41/16 33/39/16
f 42/58/16 45/64/16 39/52/16 40/54/16 41/56/16 30/33/16 13/13/16 24/24/16 36/46/16 43/60/16 44/62/16
f 77/130/16 75/126/16 76/128/16 74/124/16 72/120/16 73/122/16 71/118/16 66/107/16 9/9/16 13/13/16 61/97/16
f 3/3/17 4/4/17 12/12/17
f 4/4/17 8/8/17 12/12/17
f 18/18/17 14/14/17 23/23/17
f 14/14/17 15/15/17 23/23/17
f 3/3/17 12/12/17 11/11/17
f 15/15/17 3/3/17 26/26/17
f 3/3/17 11/11/17 26/26/17
f 81/138/17 80/136/17 78/132/17 79/134/17 11/11/17 7/7/17 60/95/17 83/142/17 82/140/17
f 52/78/17 51/76/17 50/74/17 22/22/17 26/26/17 32/37/17 48/70/17 47/68/17 46/66/17 53/80/17 49/72/17
f 58/91/17 57/89/17 54/82/17 55/84/17 28/29/17 21/21/17 22/22/17 50/74/17 56/87/17
f 89/155/17 88/153/17 90/157/17 64/103/17 26/26/17 11/11/17 79/134/17 84/145/17 86/149/17 85/147/17 87/151/17
f 23/23/17 15/15/17 22/22/17
f 59/94/33 63/102/33 70/116/33 83/143/33 60/96/33
f 61/98/34 62/100/34 64/104/34 90/158/34 77/131/34
f 75/127/35 77/131/35 90/158/35 88/154/35
f 76/129/36 75/127/36 88/154/36 89/156/36
f 74/125/37 76/129/37 89/156/37 87/152/37
f 72/121/38 74/125/38 87/152/38 85/148/38
f 73/123/39 72/121/39 85/148/39 86/150/39
f 71/119/40 73/123/40 86/150/40 84/146/40
f 65/106/41 66/108/41 71/119/41 84/146/41 79/135/41 78/133/41
f 67/110/42 65/106/42 78/133/42 80/137/42
f 68/112/43 67/110/43 80/137/43 81/139/43
f 69/114/44 68/112/44 81/139/44 82/141/44
f 70/117/45 69/114/45 82/141/45 83/144/45
usemtl 
f 34/42/20 31/36/20 27/28/20 28/30/20 55/85/20
f 48/71/21 32/38/21 29/32/21 30/34/21 41/57/21
f 41/57/22 40/55/22 47/69/22 48/71/22
f 40/55/23 39/53/23 46/67/23 47/69/23
f 39/53/24 45/65/24 53/81/24 46/67/24
f 53/81/25 45/65/25 42/59/25 49/73/25
f 49/73/26 42/59/26 44/63/26 52/79/26
f 52/79/27 44/63/27 43/61/27 51/77/27
f 50/75/28 51/77/28 43/61/28 36/47/28 35/45/28 56/88/28
f 56/88/29 35/45/29 38/51/29 58/92/29
f 58/92/30 38/51/30 37/49/30 57/90/30
f 57/90/31 37/49/31 33/40/31 54/83/31
f 54/83/32 33/40/32 34/43/32 55/86/32
o Cube.001
v 0.100000 -0.073329 0.068092
v 0.100000 0.571396 0.712817
v 0.100000 0.068093 -0.073329
v 0.100000 0.712817 0.571396
v 0.953163 -0.036500 0.104921
v 0.787255 0.079852 0.221273
v 0.953163 0.104921 -0.036500
v 0.785379 0.222590 0.081168
v 0.777115 -0.162014 -0.020593
v 0.611208 -0.045662 0.095760
v 0.777115 -0.020592 -0.162014
v 0.609331 0.097076 -0.044346
v 0.000000 -0.712817 -0.571396
v -0.100000 0.712817 0.571396
v -0.100000 0.068092 -0.073329
v -0.100000 -0.073329 0.068092
v -0.100000 0.571396 0.712817
v -0.787255 0.221273 0.079852
v -0.953163 -0.036500 0.104921
v -0.785379 0.081168 0.222589
v -0.953163 0.104921 -0.036500
v -0.777115 -0.020592 -0.162014
v -0.611208 0.095760 -0.045662
v -0.777115 -0.162014 -0.020592
v -0.609331 -0.044345 0.097076
v 0.000000 -0.571396 -0.712817
v -1.679303 -0.440040 -0.514981
v -1.679303 -0.406800 -0.548221
v -1.589963 -0.585051 -0.678856
v -1.589963 -0.702664 -0.561243
v -1.679303 -0.548221 -0.406800
v -1.589963 -0.561243 -0.702664
v -1.682789 -0.552525 -0.411104
v -1.678652 -0.549319 -0.407898
v -1.709168 -0.604123 -0.462702
v -1.708751 -0.610550 -0.469129
v -1.696332 -0.568384 -0.426963
v -1.705239 -0.585806 -0.444386
v -1.655668 -0.684791 -0.543370
v -1.633240 -0.694367 -0.552946
v -1.608600 -0.700665 -0.559244
v -1.690561 -0.657388 -0.515967
v -1.707968 -0.622630 -0.481209
v -1.701685 -0.640615 -0.499194
v -1.675023 -0.672304 -0.530883
v -1.655668 -0.543369 -0.684791
v -1.633240 -0.552945 -0.694367
v -1.608600 -0.559244 -0.700665
v -1.690561 -0.515967 -0.657389
v -1.708751 -0.469128 -0.610550
v -1.707968 -0.481208 -0.622630
v -1.701685 -0.499194 -0.640615
v -1.675023 -0.530883 -0.672305
v -1.682789 -0.411104 -0.552525
v -1.678652 -0.407898 -0.549319
v -1.709168 -0.462702 -0.604123
v -1.696332 -0.426963 -0.568384
v -1.705239 -0.444385 -0.585807
v 1.679303 -0.514980 -0.440041
v 1.679303 -0.406799 -0.548221
v 1.589960 -0.702664 -0.561243
v 1.589960 -0.585052 -0.678855
v 1.679303 -0.548221 -0.406800
v 1.589960 -0.561243 -0.702664
v 1.709168 -0.604123 -0.462702
v 1.708751 -0.610550 -0.469129
v 1.705239 -0.585806 -0.444385
v 1.696332 -0.568384 -0.426963
v 1.682789 -0.552525 -0.411104
v 1.678652 -0.549319 -0.407898
v 1.707968 -0.622629 -0.481208
v 1.690561 -0.657388 -0.515967
v 1.701685 -0.640615 -0.499194
v 1.675023 -0.672304 -0.530883
v 1.633240 -0.694366 -0.552946
v 1.655668 -0.684790 -0.543369
v 1.608600 -0.700665 -0.559244
v 1.709168 -0.462701 -0.604123
v 1.708751 -0.469128 -0.610550
v 1.705239 -0.444385 -0.585807
v 1.696332 -0.426962 -0.568384
v 1.682789 -0.411103 -0.552525
v 1.678652 -0.407897 -0.549319
v 1.707968 -0.481208 -0.622630
v 1.690561 -0.515966 -0.657388
v 1.701685 -0.499193 -0.640615
v 1.675023 -0.530883 -0.672305
v 1.633240 -0.552945 -0.694367
v 1.655668 -0.543369 -0.684791
v 1.608600 -0.559243 -0.700665
vn -1.0000 -0.0000 -0.0000
vn 0.7042 0.5021 0.5021
vn 1.0000 -0.0000 -0.0000
vn -0.7042 0.5021 0.5021
vn -0.0000 0.7071 0.7071
vn 0.7112 0.4971 0.4971
vn 0.7059 0.5008 0.5008
vn -0.7100 0.4979 0.4979
vn 0.7099 -0.4885 -0.5072
vn -0.7112 0.4971 0.4971
vn -0.7099 -0.5072 -0.4885
vn 0.7100 0.4979 0.4979
vn -0.7059 0.5008 0.5008
vn -0.0090 -0.7071 -0.7071
vn 0.0090 -0.7071 -0.7071
vn -0.0000 -0.7071 0.7071
vn -0.0000 0.7071 -0.7071
vn 0.7111 0.4972 0.4970
vn 0.7100 -0.4885 -0.5072
vn -0.7111 0.4970 0.4972
vn -0.9224 -0.2732 -0.2732
vn -0.1500 -0.6991 -0.6991
vn -0.3400 -0.6650 -0.6650
vn -0.5169 -0.6053 -0.6053
vn -0.6740 -0.5224 -0.5224
vn -0.8052 -0.4194 -0.4194
vn -0.9054 -0.3002 -0.3002
vn -0.9708 -0.1696 -0.1696
vn -0.9990 -0.0324 -0.0324
vn -0.9887 0.1060 0.1060
vn -0.9404 0.2404 0.2404
vn -0.8560 0.3655 0.3655
vn -0.7388 0.4766 0.4766
vn 0.9223 -0.2732 -0.2732
vn 0.1500 -0.6991 -0.6991
vn 0.3400 -0.6650 -0.6650
vn 0.5169 -0.6053 -0.6053
vn 0.6740 -0.5224 -0.5224
vn 0.8051 -0.4194 -0.4194
vn 0.9054 -0.3002 -0.3002
vn 0.9708 -0.1696 -0.1696
vn 0.9990 -0.0324 -0.0324
vn 0.9887 0.1060 0.1060
vn 0.9404 0.2404 0.2404
vn 0.8560 0.3655 0.3655
vn 0.7387 0.4766 0.4766
vt 0.609304 0.750000
vt 0.609304 0.750000
vt 0.390696 0.750000
vt 0.390696 0.750000
vt 0.000000 0.000000
vt 0.000000 0.000000
vt 0.000000 0.000000
vt 0.000000 0.000000
vt 0.000000 0.000000
vt 0.000000 0.000000
vt 0.000000 0.000000
vt 0.000000 0.000000
vt 0.000000 0.000000
vt 0.609304 0.750000
vt 0.609304 0.750000
vt 0.390696 0.750000
vt 0.390696 0.750000
vt 0.000000 0.000000
vt 0.000000 0.000000
vt 0.000000 0.000000
vt 0.000000 0.000000
vt 0.000000 0.000000
vt 0.000000 0.000000
vt 0.000000 0.000000
vt 0.000000 0.000000
vt 0.000000 0.000000
vt 0.000000 0.000000
vt 0.493376 0.824652
vt 0.000000 0.000000
vt 0.487500 0.824652
vt 0.000000 0.000000
vt 0.991234 0.743163
vt 0.000000 0.000000
vt 0.991234 0.760307
vt 0.000000 0.000000
vt 0.512500 0.824652
vt 0.000000 0.000000
vt 0.991234 0.739693
vt 0.000000 0.000000
vt 0.656250 0.760307
vt 0.000000 0.000000
vt 0.512500 0.824862
vt 0.648929 0.760307
vt 0.000000 0.000000
vt 0.750000 0.760307
vt 0.000000 0.000000
vt 0.760852 0.760307
vt 0.000000 0.000000
vt 0.687500 0.760307
vt 0.000000 0.000000
vt 0.718750 0.760307
vt 0.000000 0.000000
vt 0.906250 0.760307
vt 0.000000 0.000000
vt 0.937500 0.760307
vt 0.000000 0.000000
vt 0.968750 0.760307
vt 0.000000 0.000000
vt 0.843750 0.760307
vt 0.000000 0.000000
vt 0.781250 0.760307
vt 0.000000 0.000000
vt 0.812500 0.760307
vt 0.000000 0.000000
vt 0.875000 0.760307
vt 0.000000 0.000000
vt 0.906250 0.739693
vt 0.000000 0.000000
vt 0.937500 0.739693
vt 0.000000 0.000000
vt 0.968750 0.739693
vt 0.000000 0.000000
vt 0.843750 0.739693
vt 0.000000 0.000000
vt 0.760852 0.739693
vt 0.000000 0.000000
vt 0.781250 0.739693
vt 0.000000 0.000000
vt 0.812500 0.739693
vt 0.000000 0.000000
vt 0.875000 0.739693
vt 0.000000 0.000000
vt 0.656250 0.739693
vt 0.000000 0.000000
vt 0.487500 0.824863
vt 0.648929 0.739693
vt 0.000000 0.000000
vt 0.750000 0.739693
vt 0.000000 0.000000
vt 0.687500 0.739693
vt 0.000000 0.000000
vt 0.718750 0.739693
vt 0.000000 0.000000
vt 0.493376 0.824652
vt 0.000000 0.000000
vt 0.512500 0.824652
vt 0.000000 0.000000
vt 0.991238 0.739693
vt 0.000000 0.000000
vt 0.991239 0.756837
vt 0.000000 0.000000
vt 0.487500 0.824652
vt 0.000000 0.000000
vt 0.991239 0.760307
vt 0.000000 0.000000
vt 0.750000 0.739693
vt 0.000000 0.000000
vt 0.760853 0.739693
vt 0.000000 0.000000
vt 0.718750 0.739693
vt 0.000000 0.000000
vt 0.687500 0.739693
vt 0.000000 0.000000
vt 0.656250 0.739693
vt 0.000000 0.000000
vt 0.487500 0.824863
vt 0.648929 0.739693
vt 0.000000 0.000000
vt 0.781250 0.739693
vt 0.000000 0.000000
vt 0.843750 0.739693
vt 0.000000 0.000000
vt 0.812500 0.739693
vt 0.000000 0.000000
vt 0.875000 0.739693
vt 0.000000 0.000000
vt 0.937500 0.739693
vt 0.000000 0.000000
vt 0.906250 0.739693
vt 0.000000 0.000000
vt 0.968750 0.739693
vt 0.000000 0.000000
vt 0.750000 0.760307
vt 0.000000 0.000000
vt 0.760853 0.760307
vt 0.000000 0.000000
vt 0.718750 0.760307
vt 0.000000 0.000000
vt 0.687500 0.760307
vt 0.000000 0.000000
vt 0.656250 0.760307
vt 0.000000 0.000000
vt 0.512500 0.824863
vt 0.648929 0.760307
vt 0.000000 0.000000
vt 0.781250 0.760307
vt 0.000000 0.000000
vt 0.843750 0.760307
vt 0.000000 0.000000
vt 0.812500 0.760307
vt 0.000000 0.000000
vt 0.875000 0.760307
vt 0.000000 0.000000
vt 0.937500 0.760307
vt 0.000000 0.000000
vt 0.906250 0.760307
vt 0.000000 0.000000
vt 0.968750 0.760307
s 0
usemtl Material
f 92/160/46 93/161/46 91/159/46
f 100/168/47 99/167/47 101/169/47
f 104/172/48 106/174/48 105/173/48
f 113/181/49 112/180/49 114/182/49
f 93/161/50 106/174/50 91/159/50
f 92/160/51 98/166/51 94/162/51
f 149/251/52 150/253/52 97/165/52
f 99/167/53 97/165/53 101/169/53
f 96/164/54 100/168/54 102/170/54
f 104/172/55 110/178/55 107/175/55
f 108/176/56 113/181/56 115/183/56
f 111/179/57 109/177/57 114/182/57
f 109/177/58 111/179/58 118/187/58 117/185/58
f 120/191/59 119/189/59 103/171/59
f 151/255/60 103/171/60 152/257/60
f 106/174/61 114/182/61 103/171/61
f 105/173/62 116/184/62 112/180/62
f 92/160/46 94/162/46 93/161/46
f 100/168/47 101/169/47 102/170/47
f 104/172/48 107/175/48 106/174/48
f 113/181/49 114/182/49 115/183/49
f 93/161/50 105/173/50 106/174/50
f 92/160/63 96/164/63 98/166/63
f 95/163/52 153/259/52 149/251/52 97/165/52
f 99/167/53 95/163/53 97/165/53
f 96/164/64 102/170/64 98/166/64
f 104/172/65 108/176/65 110/178/65
f 108/176/56 115/183/56 110/178/56
f 111/179/57 114/182/57 112/180/57
f 109/177/58 117/185/58 121/193/58
f 122/195/59 116/184/59 103/171/59 119/189/59
f 152/257/60 103/171/60 116/184/60 154/261/60
f 96/164/61 92/160/61 100/168/61
f 92/160/61 91/159/61 100/168/61
f 106/174/61 107/175/61 115/183/61
f 107/175/61 110/178/61 115/183/61
f 99/167/61 100/168/61 91/159/61
f 106/174/61 115/183/61 114/182/61
f 99/167/61 91/159/61 103/171/61
f 91/159/61 106/174/61 103/171/61
f 95/163/61 99/167/61 156/265/61 155/263/61 157/267/61 158/269/61 159/271/61 160/273/61 153/259/61
f 127/206/61 128/208/61 125/202/61 126/204/61 114/182/61 109/177/61 121/193/61 124/199/61 123/197/61
f 132/216/61 135/222/61 129/210/61 130/212/61 131/214/61 120/191/61 103/171/61 114/182/61 126/204/61 133/218/61 134/220/61
f 167/288/61 165/284/61 166/286/61 164/282/61 162/278/61 163/280/61 161/276/61 156/265/61 99/167/61 103/171/61 151/255/61
f 93/161/62 94/162/62 102/170/62
f 94/162/62 98/166/62 102/170/62
f 108/176/62 104/172/62 113/181/62
f 104/172/62 105/173/62 113/181/62
f 93/161/62 102/170/62 101/169/62
f 105/173/62 93/161/62 116/184/62
f 93/161/62 101/169/62 116/184/62
f 171/296/62 170/294/62 168/290/62 169/292/62 101/169/62 97/165/62 150/253/62 173/300/62 172/298/62
f 142/236/62 141/234/62 140/232/62 112/180/62 116/184/62 122/195/62 138/228/62 137/226/62 136/224/62 143/238/62 139/230/62
f 148/249/62 147/247/62 144/240/62 145/242/62 118/187/62 111/179/62 112/180/62 140/232/62 146/245/62
f 179/313/62 178/311/62 180/315/62 154/261/62 116/184/62 101/169/62 169/292/62 174/303/62 176/307/62 175/305/62 177/309/62
f 113/181/62 105/173/62 112/180/62
f 149/252/79 153/260/79 160/274/79 173/301/79 150/254/79
f 151/256/80 152/258/80 154/262/80 180/316/80 167/289/80
f 165/285/81 167/289/81 180/316/81 178/312/81
f 166/287/82 165/285/82 178/312/82 179/314/82
f 164/283/83 166/287/83 179/314/83 177/310/83
f 162/279/84 164/283/84 177/310/84 175/306/84
f 163/281/85 162/279/85 175/306/85 176/308/85
f 161/277/86 163/281/86 176/308/86 174/304/86
f 155/264/87 156/266/87 161/277/87 174/304/87 169/293/87 168/291/87
f 157/268/88 155/264/88 168/291/88 170/295/88
f 158/270/89 157/268/89 170/295/89 171/297/89
f 159/272/90 158/270/90 171/297/90 172/299/90
f 160/275/91 159/272/91 172/299/91 173/302/91
usemtl 
f 124/200/66 121/194/66 117/186/66 118/188/66 145/243/66
f 138/229/67 122/196/67 119/190/67 120/192/67 131/215/67
f 131/215/68 130/213/68 137/227/68 138/229/68
f 130/213/69 129/211/69 136/225/69 137/227/69
f 129/211/70 135/223/70 143/239/70 136/225/70
f 143/239/71 135/223/71 132/217/71 139/231/71
f 139/231/72 132/217/72 134/221/72 142/237/72
f 142/237/73 134/221/73 133/219/73 141/235/73
f 140/233/74 141/235/74 133/219/74 126/205/74 125/203/74 146/246/74
f 146/246/75 125/203/75 128/209/75 148/250/75
f 148/250/76 128/209/76 127/207/76 147/248/76
f 147/248/77 127/207/77 123/198/77 144/241/77
f 144/241/78 123/198/78 124/201/78 145/244/78
