# Blender 3.4.1
# www.blender.org
mtllib lasercut2.mtl
o Cube
v -1.748859 0.100000 -0.908076
v 1.748859 0.099999 -0.908076
v -0.100000 1.748859 0.908076
v 0.100000 1.748859 0.908076
v -1.748859 0.126830 -0.932435
v 1.748859 0.126830 -0.932435
v -0.100000 1.775689 0.883717
v 0.100000 1.775689 0.883717
vn -0.0000 -0.7404 0.6722
vn -0.0000 0.7404 -0.6722
vn 0.8299 0.3750 0.4130
vn -0.0000 0.6722 0.7404
vn -0.8299 0.3750 0.4130
vn -0.0000 -0.6722 -0.7404
s 0
usemtl Material
f 4//1 1//1 2//1
f 5//2 8//2 6//2
f 2//3 8//3 4//3
f 4//4 7//4 3//4
f 3//5 5//5 1//5
f 1//6 6//6 2//6
f 4//1 3//1 1//1
f 5//2 7//2 8//2
f 2//3 6//3 8//3
f 4//4 8//4 7//4
f 3//5 7//5 5//5
f 1//6 5//6 6//6
