# Blender v2.79 (sub 0) OBJ File: ''
# www.blender.org
mtllib leaf.mtl
o Cube.006
v -2.000000 -0.000000 0.998768
v 0.000000 2.000000 -1.000000
v 0.000000 -2.000000 -1.000000
v 2.000000 -0.000000 1.000000
vt 0.000000 0.000000
vt 1.000000 0.000000
vt 1.000000 1.000000
vt 0.000000 0.000000
vt 1.000000 1.000000
vt 1.000000 0.000000
vt 1.000000 1.000000
vt 0.000000 0.000000
vt 1.000000 0.000000
vn -0.7069 0.0000 -0.7073
vn 0.7071 0.0000 -0.7071
vn -0.0002 -0.7070 0.7072
vn -0.0002 0.7070 0.7072
usemtl Material.007
s 1
f 1/1/1 2/2/1 3/3/1
f 3/4/2 2/2/2 4/5/2
f 3/4/3 4/6/3 1/7/3
f 2/8/4 1/9/4 4/5/4
