# Blender v2.93.4 OBJ File: 'smallclipMold.blend'
# www.blender.org
mtllib leaf3.mtl
v -0.189113 -0.123044 -0.810912
v -0.189113 0.123044 -0.810912
v -1.000025 -0.123044 -0.000000
v -1.000025 0.123044 -0.000000
v -0.984444 -0.123044 -0.158201
v -0.984444 0.123044 -0.158201
v -0.938298 -0.123044 -0.310323
v -0.938298 0.123044 -0.310323
v -0.863362 -0.123044 -0.450519
v -0.863362 0.123044 -0.450519
v -0.762515 -0.123044 -0.573401
v -0.762515 0.123044 -0.573401
v -0.639632 -0.123044 -0.674249
v -0.639632 0.123044 -0.674249
v -0.499436 -0.123044 -0.749185
v -0.499436 0.123044 -0.749185
v -0.347314 -0.123044 -0.795331
v -0.347314 0.123044 -0.795331
v -1.000023 0.123044 0.000023
v -1.000023 -0.123044 0.000023
v -0.189090 -0.123044 -0.810910
v -0.189090 0.123044 -0.810910
v 0.123044 0.189113 0.810912
v -0.123044 0.189113 0.810912
v 0.123044 1.000025 0.000000
v -0.123044 1.000025 0.000000
v 0.123044 0.984444 0.158201
v -0.123044 0.984444 0.158201
v 0.123044 0.938298 0.310323
v -0.123044 0.938298 0.310323
v 0.123044 0.863362 0.450519
v -0.123044 0.863362 0.450519
v 0.123044 0.762515 0.573401
v -0.123044 0.762515 0.573401
v 0.123044 0.639632 0.674249
v -0.123044 0.639632 0.674249
v 0.123044 0.499436 0.749185
v -0.123044 0.499436 0.749185
v 0.123044 0.347314 0.795331
v -0.123044 0.347314 0.795331
v -0.123044 0.189090 0.810910
v 0.123044 0.189090 0.810910
v -0.123044 1.000023 -0.000023
v 0.123044 1.000023 -0.000023
v 0.189088 -0.123044 -0.810887
v 0.189088 0.123044 -0.810887
v 1.000000 -0.123044 0.000025
v 1.000000 0.123044 0.000025
v 0.841799 -0.123044 -0.015556
v 0.841799 0.123044 -0.015556
v 0.689677 -0.123044 -0.061702
v 0.689677 0.123044 -0.061702
v 0.549482 -0.123044 -0.136638
v 0.549482 0.123044 -0.136638
v 0.426599 -0.123044 -0.237485
v 0.426599 0.123044 -0.237485
v 0.325751 -0.123044 -0.360368
v 0.325751 0.123044 -0.360368
v 0.250815 -0.123044 -0.500564
v 0.250815 0.123044 -0.500564
v 0.204669 -0.123044 -0.652686
v 0.204669 0.123044 -0.652686
v 1.000023 0.123044 0.000023
v 1.000023 -0.123044 0.000023
v 0.189090 -0.123044 -0.810910
v 0.189090 0.123044 -0.810910
v 0.123044 -0.189088 0.810887
v -0.123044 -0.189088 0.810887
v 0.123044 -1.000000 -0.000025
v -0.123044 -1.000000 -0.000025
v 0.123044 -0.841799 0.015556
v -0.123044 -0.841799 0.015556
v 0.123044 -0.689677 0.061702
v -0.123044 -0.689677 0.061702
v 0.123044 -0.549482 0.136638
v -0.123044 -0.549482 0.136638
v 0.123044 -0.426599 0.237485
v -0.123044 -0.426599 0.237485
v 0.123044 -0.325751 0.360368
v -0.123044 -0.325751 0.360368
v 0.123044 -0.250815 0.500564
v -0.123044 -0.250815 0.500564
v 0.123044 -0.204669 0.652686
v -0.123044 -0.204669 0.652686
v -0.123044 -0.189090 0.810910
v 0.123044 -0.189090 0.810910
v -0.123044 -1.000023 -0.000023
v 0.123044 -1.000023 -0.000023
v 0.959022 0.200000 -0.040978
v 0.200000 0.200000 -0.800000
v 0.200000 1.383222 -0.800000
v 1.383222 0.200000 0.383222
v 0.200000 0.959022 0.040978
v 1.383222 0.200000 0.800000
v 0.200000 0.200000 0.800000
v 0.200000 1.383222 -0.383222
v 1.383222 -0.200000 0.383222
v 0.959022 -0.200000 -0.040978
v 0.200000 -1.383222 -0.800000
v 0.200000 -0.200000 -0.800000
v 0.200000 -0.959022 0.040978
v 1.383222 -0.200000 0.800000
v 0.200000 -0.200000 0.800000
v 0.200000 -1.383222 -0.383222
v -1.383222 -0.200000 0.383222
v -0.959022 -0.200000 -0.040978
v -0.200000 -1.383222 -0.800000
v -0.200000 -0.200000 -0.800000
v -1.383222 -0.200000 0.800000
v -0.200000 -0.200000 0.800000
v -0.200000 -0.959022 0.040978
v -0.200000 -1.383222 -0.383222
v -0.959022 0.200000 -0.040978
v -0.200000 0.200000 -0.800000
v -0.200000 1.383222 -0.800000
v -1.383222 0.200001 0.383222
v -1.383222 0.200001 0.799999
v -0.200000 0.200000 0.800000
v -0.200000 0.959022 0.040978
v -0.200000 1.383222 -0.383222
v 0.000000 -1.690193 -1.000000
v -0.031211 -1.690193 -0.968789
v 0.000000 1.690193 -1.000000
v 1.690193 -0.031211 0.968789
v -0.031211 1.690193 -0.968789
v 1.690193 -0.309807 0.690193
v 0.309807 -1.690193 -0.690193
v -1.690193 -0.309807 0.690193
v -0.309807 -1.690193 -0.690193
v -1.690193 0.000000 1.000000
v -1.690193 -0.031211 0.968789
v 1.690193 0.000000 1.000000
v -1.690193 0.031211 0.968789
v -1.690193 0.309807 0.690193
v -0.309807 1.690193 -0.690193
v 1.690193 0.031211 0.968789
v 0.031211 -1.690193 -0.968789
v 0.031211 1.690193 -0.968789
v 1.690193 0.309807 0.690193
v 0.309807 1.690193 -0.690193
vt 0.504128 0.226364
vt 0.519508 0.226364
vt 0.607588 0.246099
vt 0.605637 0.250000
vt 0.394363 0.250000
vt 0.396314 0.246099
vt 0.554811 0.124997
vt 0.500000 0.225000
vt 0.547439 0.130122
vt 0.525000 0.225000
vt 0.598951 0.225000
vt 0.598951 0.077097
vt 0.572439 0.130122
vt 0.570192 0.124997
vt 0.573951 0.077097
vt 0.426049 0.225000
vt 0.413726 0.211274
vt 0.586274 0.038726
vt 0.625000 0.038726
vt 0.625000 0.211274
vt 0.452561 0.619878
vt 0.445189 0.625003
vt 0.495872 0.523636
vt 0.500000 0.525000
vt 0.480492 0.523636
vt 0.475000 0.525000
vt 0.401049 0.525000
vt 0.401049 0.672903
vt 0.427561 0.619878
vt 0.429808 0.625003
vt 0.426049 0.672903
vt 0.573951 0.525000
vt 0.603686 0.503901
vt 0.586274 0.538726
vt 0.413726 0.711274
vt 0.375000 0.711274
vt 0.375000 0.538726
vt 0.392412 0.503901
vt 0.394363 0.500000
vt 0.605637 0.500000
vt 0.275000 0.725000
vt 0.269508 0.726364
vt 0.320192 0.624997
vt 0.322439 0.630122
vt 0.297439 0.630122
vt 0.304811 0.624997
vt 0.254128 0.726364
vt 0.250000 0.725000
vt 0.348951 0.725000
vt 0.348951 0.577097
vt 0.323951 0.577097
vt 0.176049 0.725000
vt 0.146314 0.746099
vt 0.163726 0.711274
vt 0.336274 0.538726
vt 0.357588 0.746099
vt 0.355637 0.750000
vt 0.144363 0.750000
vt 0.797439 0.630122
vt 0.804811 0.624997
vt 0.754128 0.726364
vt 0.750000 0.725000
vt 0.775000 0.725000
vt 0.769508 0.726364
vt 0.820192 0.624997
vt 0.822439 0.630122
vt 0.848951 0.725000
vt 0.848951 0.577097
vt 0.823951 0.577097
vt 0.676049 0.725000
vt 0.646314 0.746099
vt 0.663726 0.711274
vt 0.836274 0.538726
vt 0.875000 0.538726
vt 0.875000 0.711274
vt 0.857588 0.746099
vt 0.855637 0.750000
vt 0.644363 0.750000
vt 1.000000 0.500000
vt 1.000000 1.000000
vt 0.999995 1.000000
vt 0.999995 0.500000
vt 0.250005 1.000000
vt 0.250000 1.000000
vt 0.250000 0.500000
vt 0.250005 0.500000
vt 0.218750 1.000000
vt 0.218750 0.500000
vt 0.187500 1.000000
vt 0.187500 0.500000
vt 0.156250 1.000000
vt 0.156250 0.500000
vt 0.125000 1.000000
vt 0.125000 0.500000
vt 0.093750 1.000000
vt 0.093750 0.500000
vt 0.062500 1.000000
vt 0.062500 0.500000
vt 0.250000 0.490000
vt 0.203178 0.485388
vt 0.158156 0.471731
vt 0.116663 0.449553
vt 0.080294 0.419706
vt 0.050447 0.383337
vt 0.028269 0.341844
vt 0.014612 0.296822
vt 0.010000 0.250000
vt 0.010001 0.249993
vt 0.250007 0.489999
vt 0.031250 1.000000
vt 0.031250 0.500000
vt 0.000000 1.000000
vt 0.000000 0.500000
vt 0.510000 0.250000
vt 0.514612 0.296822
vt 0.528269 0.341844
vt 0.550447 0.383337
vt 0.580294 0.419706
vt 0.616663 0.449553
vt 0.658156 0.471731
vt 0.703178 0.485388
vt 0.750000 0.490000
vt 0.750007 0.489999
vt 0.510001 0.249993
vt 0.999995 0.500000
vt 1.000000 0.500000
vt 1.000000 1.000000
vt 0.999995 1.000000
vt 0.250005 1.000000
vt 0.250000 1.000000
vt 0.250000 0.500000
vt 0.250005 0.500000
vt 0.218750 1.000000
vt 0.218750 0.500000
vt 0.187500 1.000000
vt 0.187500 0.500000
vt 0.156250 1.000000
vt 0.156250 0.500000
vt 0.125000 1.000000
vt 0.125000 0.500000
vt 0.093750 1.000000
vt 0.093750 0.500000
vt 0.062500 1.000000
vt 0.062500 0.500000
vt 0.250000 0.490000
vt 0.296822 0.485388
vt 0.341844 0.471731
vt 0.116663 0.449553
vt 0.080294 0.419706
vt 0.050447 0.383337
vt 0.028269 0.341844
vt 0.014612 0.296822
vt 0.010000 0.250000
vt 0.010001 0.249993
vt 0.250007 0.489999
vt 0.031250 1.000000
vt 0.031250 0.500000
vt 0.000000 1.000000
vt 0.000000 0.500000
vt 0.990000 0.250000
vt 0.985388 0.296822
vt 0.971731 0.341844
vt 0.949553 0.383337
vt 0.919706 0.419706
vt 0.883337 0.449553
vt 0.841844 0.471731
vt 0.703178 0.485388
vt 0.750000 0.490000
vt 0.749993 0.489999
vt 0.989999 0.249993
vt 1.000000 1.000000
vt 1.000000 0.500000
vt 0.999995 0.500000
vt 0.999995 1.000000
vt 0.250000 0.500000
vt 0.250000 1.000000
vt 0.250005 1.000000
vt 0.250005 0.500000
vt 0.218750 1.000000
vt 0.218750 0.500000
vt 0.187500 1.000000
vt 0.187500 0.500000
vt 0.156250 0.500000
vt 0.156250 1.000000
vt 0.125000 0.500000
vt 0.125000 1.000000
vt 0.093750 0.500000
vt 0.093750 1.000000
vt 0.062500 0.500000
vt 0.062500 1.000000
vt 0.014612 0.296822
vt 0.028269 0.341844
vt 0.050447 0.383337
vt 0.080294 0.419706
vt 0.116663 0.449553
vt 0.158156 0.471731
vt 0.203178 0.485388
vt 0.250000 0.490000
vt 0.250007 0.489999
vt 0.010001 0.249993
vt 0.010000 0.250000
vt 0.031250 0.500000
vt 0.031250 1.000000
vt 0.000000 0.500000
vt 0.000000 1.000000
vt 0.750007 0.489999
vt 0.750000 0.490000
vt 0.703178 0.485388
vt 0.658156 0.471731
vt 0.616663 0.449553
vt 0.580294 0.419706
vt 0.550447 0.383337
vt 0.528269 0.341844
vt 0.514612 0.296822
vt 0.510000 0.250000
vt 0.510001 0.249993
vt 1.000000 1.000000
vt 1.000000 0.500000
vt 0.999995 0.500000
vt 0.999995 1.000000
vt 0.250005 1.000000
vt 0.250005 0.500000
vt 0.250000 0.500000
vt 0.250000 1.000000
vt 0.218750 1.000000
vt 0.218750 0.500000
vt 0.187500 1.000000
vt 0.187500 0.500000
vt 0.156250 0.500000
vt 0.156250 1.000000
vt 0.125000 0.500000
vt 0.125000 1.000000
vt 0.093750 0.500000
vt 0.093750 1.000000
vt 0.062500 0.500000
vt 0.062500 1.000000
vt 0.014612 0.296822
vt 0.028269 0.341844
vt 0.050447 0.383337
vt 0.080294 0.419706
vt 0.116663 0.449553
vt 0.341844 0.471731
vt 0.296822 0.485388
vt 0.250000 0.490000
vt 0.250007 0.489999
vt 0.010001 0.249993
vt 0.010000 0.250000
vt 0.031250 0.500000
vt 0.031250 1.000000
vt 0.000000 1.000000
vt 0.000000 0.500000
vt 0.750000 0.490000
vt 0.703178 0.485388
vt 0.841844 0.471731
vt 0.883337 0.449553
vt 0.919706 0.419706
vt 0.949553 0.383337
vt 0.971731 0.341844
vt 0.985388 0.296822
vt 0.990000 0.250000
vt 0.989999 0.249993
vt 0.749993 0.489999
vt 0.558207 0.122604
vt 0.460890 0.078220
vt 0.414110 0.171780
vt 0.625000 0.171780
vt 0.625000 0.147409
vt 0.625000 0.671780
vt 0.625000 0.647409
vt 0.535372 0.622604
vt 0.375000 0.578220
vt 0.375000 0.671780
vt 0.875000 0.578220
vt 0.875000 0.602591
vt 0.414110 0.171780
vt 0.557351 0.127396
vt 0.625000 0.102591
vt 0.625000 0.078220
vt 0.460890 0.078220
vt 0.625000 0.602591
vt 0.625000 0.578220
vt 0.375000 0.578220
vt 0.375000 0.671780
vt 0.535372 0.627396
vt 0.875000 0.671780
vt 0.875000 0.647409
vt 0.460890 0.078220
vt 0.414110 0.171780
vt 0.625000 0.171780
vt 0.625000 0.147409
vt 0.558207 0.122604
vt 0.625000 0.647409
vt 0.535372 0.622604
vt 0.375000 0.578220
vt 0.375000 0.671780
vt 0.625000 0.671780
vt 0.875000 0.578220
vt 0.875000 0.602591
vt 0.557351 0.127396
vt 0.625000 0.102591
vt 0.625000 0.078220
vt 0.460890 0.078220
vt 0.414110 0.171780
vt 0.625000 0.602591
vt 0.625000 0.578220
vt 0.375000 0.578220
vt 0.375000 0.671780
vt 0.535372 0.627396
vt 0.875000 0.647409
vt 0.875000 0.671780
vt 0.497692 0.053352
vt 0.500000 0.051044
vt 0.502308 0.053352
vt 0.522912 0.073956
vt 0.477088 0.073956
vt 0.500000 0.698956
vt 0.497692 0.696648
vt 0.477088 0.676044
vt 0.522912 0.676044
vt 0.502308 0.696648
vt 0.272912 0.573956
vt 0.227088 0.573956
vt 0.247692 0.553352
vt 0.250000 0.551044
vt 0.252308 0.553352
vt 0.750000 0.551044
vt 0.752308 0.553352
vt 0.772912 0.573956
vt 0.727088 0.573956
vt 0.747692 0.553352
vn -0.7071 0.0000 -0.7071
vn 0.7071 -0.0000 -0.7071
vn -0.0000 -0.7071 0.7071
vn 0.0000 0.7071 0.7071
vn 0.0964 0.0000 -0.9953
vn -0.9952 0.0000 0.0975
vn -0.9952 0.0000 -0.0980
vn -0.9569 0.0000 -0.2903
vn -0.8819 0.0000 -0.4714
vn -0.7730 0.0000 -0.6344
vn -0.6344 0.0000 -0.7730
vn -0.4714 0.0000 -0.8819
vn 0.0000 1.0000 0.0000
vn -0.2903 0.0000 -0.9569
vn -0.0980 0.0000 -0.9952
vn 0.0000 -1.0000 0.0000
vn 0.0000 -0.0975 0.9952
vn 0.0000 0.9953 -0.0964
vn 0.0000 0.9952 0.0980
vn 0.0000 0.9569 0.2903
vn 0.0000 0.8819 0.4714
vn 0.0000 0.7730 0.6344
vn 0.0000 0.6344 0.7730
vn 0.0000 0.4714 0.8819
vn -1.0000 0.0000 0.0000
vn 0.0000 0.2903 0.9569
vn 0.0000 0.0980 0.9952
vn 1.0000 0.0000 0.0000
vn 0.9952 0.0000 0.0975
vn -0.0975 0.0000 -0.9952
vn 0.0980 0.0000 -0.9952
vn 0.2903 0.0000 -0.9569
vn 0.4714 0.0000 -0.8819
vn 0.6344 0.0000 -0.7730
vn 0.7730 0.0000 -0.6344
vn 0.8819 0.0000 -0.4714
vn 0.9569 0.0000 -0.2903
vn 0.9952 0.0000 -0.0980
vn 0.0000 -0.9953 -0.0971
vn 0.0000 0.0975 0.9952
vn 0.0000 -0.0980 0.9952
vn 0.0000 -0.2903 0.9569
vn 0.0000 -0.4714 0.8819
vn 0.0000 -0.6344 0.7730
vn 0.0000 -0.7730 0.6344
vn 0.0000 -0.8819 0.4714
vn 0.0000 -0.9569 0.2903
vn 0.0000 -0.9952 0.0980
vn -0.7071 -0.7071 0.0000
vn -0.7071 0.7071 0.0000
vn 0.7071 0.7071 0.0000
vn 0.7071 -0.7071 0.0000
usemtl None
s off
f 21/1/1 22/2/1 125/3/1 123/4/1 121/5/1 122/6/1
f 20/7/1 21/1/1 108/8/1 106/9/1
f 114/10/1 115/11/1 116/12/1 113/13/1 19/14/1 20/7/1 106/9/1 105/15/1 107/16/1 108/8/1 21/1/1 122/6/1 129/17/1 128/18/1 134/19/1 135/20/1 125/3/1 22/2/1
f 22/2/1 19/14/1 113/13/1 114/10/1
f 89/21/2 63/22/2 66/23/2 90/24/2
f 65/25/2 100/26/2 99/27/2 97/28/2 98/29/2 64/30/2 63/22/2 89/21/2 92/31/2 91/32/2 90/24/2 66/23/2 138/33/2 140/34/2 139/35/2 126/36/2 127/37/2 137/38/2
f 100/26/2 65/25/2 64/30/2 98/29/2
f 138/33/2 66/23/2 65/25/2 137/38/2 121/39/2 123/40/2
f 103/41/3 86/42/3 88/43/3 101/44/3
f 111/45/3 87/46/3 85/47/3 110/48/3
f 103/41/3 102/49/3 104/50/3 101/44/3 88/43/3 87/46/3 111/45/3 112/51/3 109/52/3 110/48/3 85/47/3 131/53/3 128/54/3 129/55/3 127/37/3 126/36/3 124/56/3 86/42/3
f 131/53/3 85/47/3 86/42/3 124/56/3 132/57/3 130/58/3
f 93/59/4 44/60/4 42/61/4 95/62/4
f 118/63/4 41/64/4 43/65/4 119/66/4
f 41/64/4 118/63/4 117/67/4 120/68/4 119/66/4 43/65/4 44/60/4 93/59/4 96/69/4 94/70/4 95/62/4 42/61/4 136/71/4 139/72/4 140/73/4 135/74/4 134/75/4 133/76/4
f 136/71/4 42/61/4 41/64/4 133/76/4 130/77/4 132/78/4
f 1/79/5 2/80/5 22/81/5 21/82/5
f 19/83/6 4/84/6 3/85/6 20/86/6
f 3/85/7 4/84/7 6/87/7 5/88/7
f 5/88/8 6/87/8 8/89/8 7/90/8
f 7/90/9 8/89/9 10/91/9 9/92/9
f 9/92/10 10/91/10 12/93/10 11/94/10
f 11/94/11 12/93/11 14/95/11 13/96/11
f 13/96/12 14/95/12 16/97/12 15/98/12
f 2/99/13 18/100/13 16/101/13 14/102/13 12/103/13 10/104/13 8/105/13 6/106/13 4/107/13 19/108/13 22/109/13
f 15/98/14 16/97/14 18/110/14 17/111/14
f 17/111/15 18/110/15 2/112/15 1/113/15
f 3/114/16 5/115/16 7/116/16 9/117/16 11/118/16 13/119/16 15/120/16 17/121/16 1/122/16 21/123/16 20/124/16
f 42/125/17 23/126/17 24/127/17 41/128/17
f 43/129/18 26/130/18 25/131/18 44/132/18
f 25/131/19 26/130/19 28/133/19 27/134/19
f 27/134/20 28/133/20 30/135/20 29/136/20
f 29/136/21 30/135/21 32/137/21 31/138/21
f 31/138/22 32/137/22 34/139/22 33/140/22
f 33/140/23 34/139/23 36/141/23 35/142/23
f 35/142/24 36/141/24 38/143/24 37/144/24
f 24/145/25 40/146/25 38/147/25 36/148/25 34/149/25 32/150/25 30/151/25 28/152/25 26/153/25 43/154/25 41/155/25
f 37/144/26 38/143/26 40/156/26 39/157/26
f 39/157/27 40/156/27 24/158/27 23/159/27
f 25/160/28 27/161/28 29/162/28 31/163/28 33/164/28 35/165/28 37/166/28 39/167/28 23/168/28 42/169/28 44/170/28
f 46/171/29 45/172/29 65/173/29 66/174/29
f 47/175/30 48/176/30 63/177/30 64/178/30
f 50/179/31 48/176/31 47/175/31 49/180/31
f 52/181/32 50/179/32 49/180/32 51/182/32
f 52/181/33 51/182/33 53/183/33 54/184/33
f 54/184/34 53/183/34 55/185/34 56/186/34
f 56/186/35 55/185/35 57/187/35 58/188/35
f 58/188/36 57/187/36 59/189/36 60/190/36
f 50/191/16 52/192/16 54/193/16 56/194/16 58/195/16 60/196/16 62/197/16 46/198/16 66/199/16 63/200/16 48/201/16
f 60/190/37 59/189/37 61/202/37 62/203/37
f 61/202/38 45/204/38 46/205/38 62/203/38
f 65/206/13 45/207/13 61/208/13 59/209/13 57/210/13 55/211/13 53/212/13 51/213/13 49/214/13 47/215/13 64/216/13
f 68/217/39 67/218/39 86/219/39 85/220/39
f 87/221/40 88/222/40 69/223/40 70/224/40
f 72/225/41 70/224/41 69/223/41 71/226/41
f 74/227/42 72/225/42 71/226/42 73/228/42
f 74/227/43 73/228/43 75/229/43 76/230/43
f 76/230/44 75/229/44 77/231/44 78/232/44
f 78/232/45 77/231/45 79/233/45 80/234/45
f 80/234/46 79/233/46 81/235/46 82/236/46
f 72/237/28 74/238/28 76/239/28 78/240/28 80/241/28 82/242/28 84/243/28 68/244/28 85/245/28 87/246/28 70/247/28
f 82/236/47 81/235/47 83/248/47 84/249/47
f 68/250/48 84/249/48 83/248/48 67/251/48
f 67/252/25 83/253/25 81/254/25 79/255/25 77/256/25 75/257/25 73/258/25 71/259/25 69/260/25 88/261/25 86/262/25
f 93/263/28 95/264/28 90/265/28 91/266/28 96/267/28
f 94/268/13 92/269/13 89/270/13 90/271/13 95/272/13
f 91/273/49 92/269/49 94/268/49 96/274/49
f 100/275/16 98/276/16 97/277/16 102/278/16 103/279/16
f 104/280/28 99/281/28 100/282/28 103/283/28 101/284/28
f 102/285/50 97/286/50 99/281/50 104/280/50
f 110/287/25 108/288/25 107/289/25 112/290/25 111/291/25
f 105/292/16 106/293/16 108/294/16 110/295/16 109/296/16
f 107/297/51 105/292/51 109/296/51 112/298/51
f 113/299/13 116/300/13 117/301/13 118/302/13 114/303/13
f 120/304/25 115/305/25 114/306/25 118/307/25 119/308/25
f 116/309/52 115/305/52 120/304/52 117/310/52
f 131/311/25 130/312/25 133/313/25 134/314/25 128/315/25
f 132/316/28 124/317/28 126/318/28 139/319/28 136/320/28
f 127/321/16 129/322/16 122/323/16 121/324/16 137/325/16
f 123/326/13 125/327/13 135/328/13 140/329/13 138/330/13
