# Blender v2.93.5 OBJ File: 'PuzzleClip.blend'
# www.blender.org
mtllib PuzzleClip.mtl
o Cube.001_Cube.003
v 0.209020 -0.659307 0.754907
v -0.067599 -0.854906 0.559307
v 0.067599 -0.559307 0.854907
v -0.209021 -0.754906 0.659307
v 0.141421 -0.460438 0.460438
v 0.141421 -0.707107 0.707107
v -0.000000 -0.807107 0.607107
v -0.000000 -0.560438 0.360438
v -0.000000 -0.607107 0.807107
v -0.000000 -0.360438 0.560438
v -0.141422 -0.460438 0.460438
v -0.141422 -0.707107 0.707107
v 0.337995 0.677997 -0.000000
v -0.479416 -0.477997 0.000000
v 0.479416 0.477997 -0.000000
v -0.337995 -0.677997 -0.000000
v -0.209020 0.659307 0.754906
v 0.067599 0.854907 0.559307
v -0.067599 0.559307 0.854906
v 0.209020 0.754906 0.659307
v -0.141421 0.460438 0.460438
v -0.141421 0.707107 0.707107
v -0.000000 0.807107 0.607107
v -0.000000 0.560438 0.360438
v 0.000000 0.607107 0.807107
v 0.000000 0.360438 0.560438
v 0.141421 0.460438 0.460438
v 0.141421 0.707107 0.707107
v -0.337995 -0.677997 -0.000000
v 0.479416 0.477997 -0.000000
v -0.479416 -0.477997 0.000000
v 0.337995 0.677997 0.000000
vt 0.625000 0.167301
vt 0.559927 0.250000
vt 0.457751 0.000000
vt 0.625000 0.082699
vt 0.625000 0.103374
vt 0.581395 0.103374
vt 0.581395 0.146626
vt 0.625000 0.146626
vt 0.625000 0.667301
vt 0.440073 0.750000
vt 0.542249 0.500000
vt 0.625000 0.582699
vt 0.625000 0.603374
vt 0.581395 0.603374
vt 0.581395 0.646626
vt 0.625000 0.646626
vt 0.875000 0.646626
vt 0.875000 0.667301
vt 0.875000 0.582699
vt 0.875000 0.603374
vt 0.418605 0.000000
vt 0.375000 0.250000
vt 0.375000 0.250000
vt 0.418605 0.000000
vt 0.418605 0.500000
vt 0.375000 0.750000
vt 0.375000 0.750000
vt 0.418605 0.500000
vt 0.375000 0.603374
vt 0.125000 0.603374
vt 0.125000 0.646626
vt 0.375000 0.646626
vt 0.457751 1.000000
vt 0.625000 1.000000
vt 0.541392 0.821290
vt 0.441289 0.912866
vt 0.458608 0.928710
vt 0.558711 0.837134
vt 0.625000 0.167301
vt 0.559927 0.250000
vt 0.457751 0.000000
vt 0.625000 0.082699
vt 0.625000 0.103374
vt 0.581395 0.103374
vt 0.581395 0.146626
vt 0.625000 0.146626
vt 0.625000 0.667301
vt 0.440073 0.750000
vt 0.542249 0.500000
vt 0.625000 0.582699
vt 0.625000 0.603374
vt 0.581395 0.603374
vt 0.581395 0.646626
vt 0.625000 0.646626
vt 0.875000 0.646626
vt 0.875000 0.667301
vt 0.875000 0.582699
vt 0.875000 0.603374
vt 0.418605 0.000000
vt 0.375000 0.250000
vt 0.375000 0.250000
vt 0.418605 0.000000
vt 0.418605 0.500000
vt 0.375000 0.750000
vt 0.375000 0.750000
vt 0.418605 0.500000
vt 0.375000 0.603374
vt 0.125000 0.603374
vt 0.125000 0.646626
vt 0.375000 0.646626
vt 0.457751 1.000000
vt 0.625388 0.779196
vt 0.541392 0.821290
vt 0.441289 0.912866
vt 0.458608 0.928710
vt 0.558711 0.837134
vn 0.7071 -0.5000 -0.5000
vn -0.7071 0.5000 0.5000
vn -0.0000 -0.7071 0.7071
vn -0.7071 -0.5000 -0.5000
vn 0.7071 0.5000 0.5000
vn -0.7164 -0.6951 0.0591
vn 0.6143 0.3421 0.7110
vn -0.0000 0.0000 -1.0000
vn -0.7071 0.5000 -0.5000
vn 0.7071 -0.5000 0.5000
vn -0.0000 0.7071 0.7071
vn 0.7071 0.5000 -0.5000
vn -0.7071 -0.5000 0.5000
vn 0.7164 0.6951 0.0591
vn -0.6143 -0.3421 0.7110
usemtl None
s off
f 2/1/1 16/2/1 15/3/1 1/4/1 6/5/1 5/6/1 8/7/1 7/8/1
f 3/9/2 13/10/2 14/11/2 4/12/2 12/13/2 11/14/2 10/15/2 9/16/2
f 6/17/3 1/18/3 3/9/3 9/16/3
f 12/13/3 4/12/3 2/19/3 7/20/3
f 9/21/4 10/22/4 5/23/4 6/24/4
f 7/25/5 8/26/5 11/27/5 12/28/5
f 8/29/3 5/30/3 10/31/3 11/32/3
f 14/11/6 16/2/6 2/1/6 4/12/6
f 15/33/7 13/10/7 3/9/7 1/34/7
f 15/35/8 16/36/8 14/37/8 13/38/8
f 18/39/9 32/40/9 31/41/9 17/42/9 22/43/9 21/44/9 24/45/9 23/46/9
f 19/47/10 29/48/10 30/49/10 20/50/10 28/51/10 27/52/10 26/53/10 25/54/10
f 22/55/11 17/56/11 19/47/11 25/54/11
f 28/51/11 20/50/11 18/57/11 23/58/11
f 25/59/12 26/60/12 21/61/12 22/62/12
f 23/63/13 24/64/13 27/65/13 28/66/13
f 24/67/11 21/68/11 26/69/11 27/70/11
f 30/49/14 32/40/14 18/39/14 20/50/14
f 31/71/15 29/48/15 19/47/15 17/72/15
f 30/73/8 29/74/8 31/75/8 32/76/8
o Cube.002_Cube.006
v -0.659307 0.209020 -0.754906
v -0.854906 -0.067599 -0.559307
v -0.559307 0.067599 -0.854906
v -0.754906 -0.209020 -0.659307
v -0.460438 0.141421 -0.460438
v -0.707107 0.141421 -0.707107
v -0.807107 -0.000000 -0.607107
v -0.560438 -0.000000 -0.360438
v -0.607107 0.000000 -0.807107
v -0.360438 0.000000 -0.560438
v -0.460438 -0.141421 -0.460438
v -0.707107 -0.141421 -0.707107
v 0.677997 0.337995 0.000000
v -0.477997 -0.479416 -0.000000
v 0.477997 0.479416 0.000000
v -0.677997 -0.337995 0.000000
v 0.659307 -0.209020 -0.754907
v 0.854907 0.067599 -0.559307
v 0.559307 -0.067598 -0.854906
v 0.754906 0.209021 -0.659307
v 0.460438 -0.141421 -0.460438
v 0.707107 -0.141421 -0.707107
v 0.807107 0.000000 -0.607107
v 0.560438 0.000000 -0.360438
v 0.607107 0.000001 -0.807107
v 0.360438 0.000000 -0.560438
v 0.460438 0.141422 -0.460438
v 0.707107 0.141422 -0.707107
v -0.677997 -0.337995 -0.000000
v 0.477997 0.479416 0.000000
v -0.477997 -0.479416 -0.000000
v 0.677997 0.337995 0.000000
vt 0.625000 0.167301
vt 0.559927 0.250000
vt 0.457751 0.000000
vt 0.625000 0.082699
vt 0.625000 0.103374
vt 0.581395 0.103374
vt 0.581395 0.146626
vt 0.625000 0.146626
vt 0.625000 0.667301
vt 0.440073 0.750000
vt 0.542249 0.500000
vt 0.625000 0.582699
vt 0.625000 0.603374
vt 0.581395 0.603374
vt 0.581395 0.646626
vt 0.625000 0.646626
vt 0.875000 0.646626
vt 0.875000 0.667301
vt 0.875000 0.582699
vt 0.875000 0.603374
vt 0.418605 0.000000
vt 0.375000 0.250000
vt 0.375000 0.250000
vt 0.418605 0.000000
vt 0.418605 0.500000
vt 0.375000 0.750000
vt 0.375000 0.750000
vt 0.418605 0.500000
vt 0.375000 0.603374
vt 0.125000 0.603374
vt 0.125000 0.646626
vt 0.375000 0.646626
vt 0.457751 1.000000
vt 0.625000 1.000000
vt 0.541392 0.821290
vt 0.441289 0.912866
vt 0.458608 0.928710
vt 0.558711 0.837134
vt 0.625000 0.167301
vt 0.559927 0.250000
vt 0.457751 0.000000
vt 0.625000 0.082699
vt 0.625000 0.103374
vt 0.581395 0.103374
vt 0.581395 0.146626
vt 0.625000 0.146626
vt 0.625000 0.667301
vt 0.440073 0.750000
vt 0.542249 0.500000
vt 0.625000 0.582699
vt 0.625000 0.603374
vt 0.581395 0.603374
vt 0.581395 0.646626
vt 0.625000 0.646626
vt 0.875000 0.646626
vt 0.875000 0.667301
vt 0.875000 0.582699
vt 0.875000 0.603374
vt 0.418605 0.000000
vt 0.375000 0.250000
vt 0.375000 0.250000
vt 0.418605 0.000000
vt 0.418605 0.500000
vt 0.375000 0.750000
vt 0.375000 0.750000
vt 0.418605 0.500000
vt 0.375000 0.603374
vt 0.125000 0.603374
vt 0.125000 0.646626
vt 0.375000 0.646626
vt 0.457751 1.000000
vt 0.615654 0.662331
vt 0.541392 0.821290
vt 0.441289 0.912866
vt 0.458608 0.928710
vt 0.558711 0.837134
vn -0.5000 0.7071 0.5000
vn 0.5000 -0.7071 -0.5000
vn -0.7071 -0.0000 -0.7071
vn -0.5000 -0.7071 0.5000
vn 0.5000 0.7071 -0.5000
vn -0.6951 -0.7164 -0.0591
vn 0.3421 0.6143 -0.7110
vn 0.0000 -0.0000 1.0000
vn 0.5000 -0.7071 0.5000
vn -0.5000 0.7071 -0.5000
vn 0.7071 0.0000 -0.7071
vn 0.5000 0.7071 0.5000
vn -0.5000 -0.7071 -0.5000
vn 0.6951 0.7164 -0.0591
vn -0.3421 -0.6143 -0.7110
usemtl None
s off
f 34/77/16 48/78/16 47/79/16 33/80/16 38/81/16 37/82/16 40/83/16 39/84/16
f 35/85/17 45/86/17 46/87/17 36/88/17 44/89/17 43/90/17 42/91/17 41/92/17
f 38/93/18 33/94/18 35/85/18 41/92/18
f 44/89/18 36/88/18 34/95/18 39/96/18
f 41/97/19 42/98/19 37/99/19 38/100/19
f 39/101/20 40/102/20 43/103/20 44/104/20
f 40/105/18 37/106/18 42/107/18 43/108/18
f 46/87/21 48/78/21 34/77/21 36/88/21
f 47/109/22 45/86/22 35/85/22 33/110/22
f 47/111/23 48/112/23 46/113/23 45/114/23
f 50/115/24 64/116/24 63/117/24 49/118/24 54/119/24 53/120/24 56/121/24 55/122/24
f 51/123/25 61/124/25 62/125/25 52/126/25 60/127/25 59/128/25 58/129/25 57/130/25
f 54/131/26 49/132/26 51/123/26 57/130/26
f 60/127/26 52/126/26 50/133/26 55/134/26
f 57/135/27 58/136/27 53/137/27 54/138/27
f 55/139/28 56/140/28 59/141/28 60/142/28
f 56/143/26 53/144/26 58/145/26 59/146/26
f 62/125/29 64/116/29 50/115/29 52/126/29
f 63/147/30 61/124/30 51/123/30 49/148/30
f 62/149/23 61/150/23 63/151/23 64/152/23
