# Blender v2.93.4 OBJ File: 'small.blend'
# www.blender.org
mtllib small.mtl
v 0.269000 -1.194000 -0.731000
v 0.269000 1.194000 -0.731000
v -1.200000 -0.267000 0.733000
v 1.462000 0.000000 0.462000
v 0.000000 -1.467000 -0.467000
v 1.200000 -0.267000 0.733000
v -1.467000 0.000000 0.467000
v -0.267000 -1.200000 -0.733000
v -0.267000 1.200000 -0.733000
v -1.200000 0.267000 0.733000
v 0.000000 1.467000 -0.467000
v 1.200000 0.267000 0.733000
v -1.820000 0.000000 1.000000
v -1.820000 -0.060000 0.940000
v -1.820000 0.060000 0.940000
v -1.820000 -0.180000 0.820000
v -1.820000 0.180000 0.820000
v -1.820000 0.000000 0.820000
v 1.820000 0.000000 1.000000
v 1.820000 -0.060000 0.940000
v 1.820000 0.060000 0.940000
v 1.820000 -0.180000 0.820000
v 1.820000 0.000000 0.820000
v 1.820000 0.180000 0.820000
v 0.000000 -1.820000 -0.820000
v -0.060000 -1.820000 -0.940000
v -0.180000 -1.820000 -0.820000
v 0.180000 -1.820000 -0.820000
v 0.060000 -1.820000 -0.940000
v 0.000000 -1.820000 -1.000000
v -0.180000 1.820000 -0.820000
v -0.060000 1.820000 -0.940000
v 0.180000 1.820000 -0.820000
v 0.000000 1.820000 -0.820000
v 0.060000 1.820000 -0.940000
v 0.000000 1.820000 -1.000000
vt 0.495870 0.060435
vt 0.500000 0.056305
vt 0.504130 0.060435
vt 0.512389 0.068695
vt 0.500000 0.068695
vt 0.487611 0.068695
vt 0.487611 0.681305
vt 0.500000 0.681305
vt 0.512389 0.681305
vt 0.504130 0.689565
vt 0.500000 0.693695
vt 0.495870 0.689565
vt 0.262389 0.568695
vt 0.250000 0.568695
vt 0.237611 0.568695
vt 0.245870 0.560435
vt 0.250000 0.556305
vt 0.254130 0.560435
vt 0.750000 0.568695
vt 0.737611 0.568695
vt 0.745870 0.560435
vt 0.750000 0.556305
vt 0.754130 0.560435
vt 0.762389 0.568695
vt 0.000000 0.000000
vt 0.000000 0.000000
vt 0.000000 0.000000
vt 0.000000 0.000000
vt 0.000000 0.000000
vt 0.000000 0.000000
vt 0.000000 0.000000
vt 0.000000 0.000000
vt 0.000000 0.000000
vt 0.000000 0.000000
vt 0.000000 0.000000
vt 0.000000 0.000000
vt 0.000000 0.000000
vt 0.000000 0.000000
vt 0.000000 0.000000
vt 0.000000 0.000000
vt 0.000000 0.000000
vt 0.000000 0.000000
vt 0.000000 0.000000
vt 0.000000 0.000000
vt 0.000000 0.000000
vt 0.000000 0.000000
vt 0.000000 0.000000
vt 0.000000 0.000000
vt 0.000000 0.000000
vt 0.000000 0.000000
vt 0.000000 0.000000
vt 0.000000 0.000000
vt 0.000000 0.000000
vt 0.000000 0.000000
vt 0.000000 0.000000
vt 0.000000 0.000000
vt 0.000000 0.000000
vt 0.000000 0.000000
vt 0.000000 0.000000
vt 0.000000 0.000000
vn -1.0000 0.0000 0.0000
vn 1.0000 0.0000 0.0000
vn 0.0000 -1.0000 -0.0000
vn 0.0000 1.0000 -0.0000
vn -0.7058 0.0000 0.7084
vn -0.7189 0.0000 -0.6951
vn 0.0105 -0.7004 -0.7136
vn -0.0105 -0.7004 0.7136
vn -0.7071 -0.7071 -0.0000
vn -0.7071 0.7071 -0.0000
vn -0.7101 -0.7040 0.0058
vn -0.0037 0.0000 1.0000
vn -0.7101 0.7040 0.0058
vn 0.0000 0.0000 1.0000
vn 0.0000 -0.7071 0.7071
vn 0.0000 0.7071 -0.7071
vn -0.7071 -0.0000 -0.7071
vn -0.0000 0.7071 0.7071
vn 0.0000 -0.7071 -0.7071
vn 0.7071 0.0000 -0.7071
usemtl None
s off
f 14/1/1 13/2/1 15/3/1 17/4/1 18/5/1 16/6/1
f 22/7/2 23/8/2 24/9/2 21/10/2 19/11/2 20/12/2
f 28/13/3 25/14/3 27/15/3 26/16/3 30/17/3 29/18/3
f 34/19/4 33/20/4 35/21/4 36/22/4 32/23/4 31/24/4
f 7/25/5 3/26/5 10/27/5
f 4/28/6 6/29/6 12/30/6
f 8/31/7 1/32/7 5/33/7
f 9/34/8 2/35/8 11/36/8
f 7/25/9 8/31/9 5/33/9 3/26/9
f 9/34/10 7/25/10 10/27/10 11/36/10
f 4/28/11 12/30/11 11/36/11 2/35/11
f 8/31/12 1/32/12 2/35/12 9/34/12
f 1/32/13 5/33/13 6/29/13 4/28/13
f 6/29/14 12/30/14 10/27/14 3/26/14
f 20/37/15 6/29/15 5/33/15 25/38/15 28/39/15 22/40/15
f 27/41/15 25/38/15 5/33/15 3/26/15 14/42/15 16/43/15
f 6/29/16 3/26/16 14/42/16 13/44/16 19/45/16 20/37/16
f 7/25/17 8/31/17 26/46/17 27/41/17 16/43/17 18/47/17
f 26/46/17 8/31/17 9/34/17 32/48/17 36/49/17 30/50/17
f 32/48/17 9/34/17 7/25/17 18/47/17 17/51/17 31/52/17
f 17/51/18 15/53/18 10/27/18 11/36/18 34/54/18 31/52/18
f 15/53/19 10/27/19 12/30/19 21/55/19 19/45/19 13/44/19
f 34/54/18 11/36/18 12/30/18 21/55/18 24/56/18 33/57/18
f 4/28/20 2/35/20 35/58/20 33/57/20 24/56/20 23/59/20
f 29/60/20 1/32/20 4/28/20 23/59/20 22/40/20 28/39/20
f 35/58/20 2/35/20 1/32/20 29/60/20 30/50/20 36/49/20
