# Blender v2.79 (sub 0) OBJ File: 'spacebrickpline.blend'
# www.blender.org
mtllib spacebrickpline.mtl
o Cube.002_Cube
v 0.000000 1.641055 -0.820527
v 0.000000 0.547018 0.273509
v 0.000000 0.000000 0.820527
v 0.000000 0.724513 0.451004
v 0.820527 0.998022 0.177494
v 1.641055 0.177494 0.998022
v -0.820527 0.998022 0.177494
v 0.000000 1.818549 -0.643033
v -1.641055 0.177494 0.998022
v 0.000000 0.177494 0.998022
v -0.000001 -1.641055 -0.820527
v -0.000000 -0.547018 0.273509
v -0.820528 -0.820527 0.000000
v -0.000000 -0.724513 0.451004
v -0.820528 -0.998022 0.177494
v -1.641055 -0.177494 0.998022
v 0.820527 -0.998022 0.177494
v -0.000001 -1.818549 -0.643033
v 1.641055 -0.177495 0.998022
v -0.000000 -0.177494 0.998022
v 0.820527 -0.820528 0.000000
v 1.641055 -0.000001 0.820528
v 0.547018 -0.000000 -0.273509
v 0.000000 -0.000000 -0.820527
v 0.820528 0.820527 0.000000
v 0.724513 -0.000000 -0.451003
v 0.998022 0.820527 -0.177494
v 0.177495 1.641055 -0.998022
v 0.998022 -0.820528 -0.177494
v 1.818549 -0.000001 0.643033
v 0.177494 -1.641055 -0.998022
v 0.177494 -0.000000 -0.998022
v -0.820527 0.820527 -0.000000
v -1.641055 -0.000000 0.820527
v -0.547018 -0.000000 -0.273509
v -0.724513 -0.000000 -0.451004
v -0.998022 -0.820527 -0.177494
v -0.177494 -1.641055 -0.998022
v -0.998022 0.820527 -0.177494
v -1.818549 -0.000000 0.643033
v -0.177494 1.641055 -0.998022
v -0.177494 -0.000000 -0.998022
vn 0.8165 0.4082 -0.4082
vn 0.0000 0.7071 0.7071
vn -0.4264 0.6396 -0.6396
vn -0.8165 0.4082 -0.4082
vn 1.0000 -0.0000 -0.0000
vn -0.4264 -0.6396 0.6396
vn 0.0000 -0.7071 0.7071
vn -0.8165 -0.4082 -0.4082
vn 0.4264 -0.6396 -0.6396
vn 0.8165 -0.4082 -0.4082
vn -1.0000 0.0000 0.0000
vn 0.4264 0.6396 0.6396
vn 0.4082 0.8165 0.4082
vn 0.7071 0.0000 -0.7071
vn 0.6396 -0.4264 0.6396
vn 0.4082 -0.8165 0.4082
vn 0.0000 1.0000 0.0000
vn -0.6396 -0.4264 -0.6396
vn -0.7071 0.0000 -0.7071
vn -0.4082 -0.8165 0.4082
vn -0.6396 0.4264 0.6396
vn -0.4082 0.8165 0.4082
vn 0.0000 -1.0000 0.0000
vn 0.6396 0.4264 -0.6396
usemtl None
s off
f 22//1 5//1 6//1
f 2//2 25//2 1//2
f 33//2 34//2 2//2
f 34//3 4//3 2//3
f 33//4 8//4 1//4
f 2//2 3//2 22//2
f 8//2 7//2 4//2
f 4//2 6//2 5//2
f 4//2 9//2 10//2
f 3//5 4//5 10//5
f 22//6 4//6 2//6
f 3//7 9//7 34//7
f 2//5 8//5 4//5
f 2//3 5//3 25//3
f 2//6 7//6 33//6
f 34//8 15//8 16//8
f 12//7 13//7 11//7
f 21//7 22//7 12//7
f 22//9 14//9 12//9
f 21//10 18//10 11//10
f 12//7 3//7 34//7
f 18//7 17//7 14//7
f 14//7 16//7 15//7
f 14//7 19//7 20//7
f 3//11 14//11 20//11
f 34//12 14//12 12//12
f 3//2 19//2 22//2
f 12//11 18//11 14//11
f 12//9 15//9 13//9
f 12//12 17//12 21//12
f 1//13 27//13 28//13
f 23//14 25//14 22//14
f 21//14 11//14 23//14
f 11//15 26//15 23//15
f 21//16 30//16 22//16
f 23//14 24//14 1//14
f 30//14 29//14 26//14
f 26//14 28//14 27//14
f 26//14 31//14 32//14
f 24//17 26//17 32//17
f 1//18 26//18 23//18
f 24//19 31//19 11//19
f 23//17 30//17 26//17
f 23//15 27//15 25//15
f 23//18 29//18 21//18
f 11//20 37//20 38//20
f 35//19 13//19 34//19
f 33//19 1//19 35//19
f 1//21 36//21 35//21
f 33//22 40//22 34//22
f 35//19 24//19 11//19
f 40//19 39//19 36//19
f 36//19 38//19 37//19
f 36//19 41//19 42//19
f 24//23 36//23 42//23
f 11//24 36//24 35//24
f 24//14 41//14 1//14
f 35//23 40//23 36//23
f 35//21 37//21 13//21
f 35//24 39//24 33//24
f 22//1 25//1 5//1
f 34//3 9//3 4//3
f 33//4 7//4 8//4
f 3//5 2//5 4//5
f 22//6 6//6 4//6
f 3//7 10//7 9//7
f 2//5 1//5 8//5
f 2//3 4//3 5//3
f 2//6 4//6 7//6
f 34//8 13//8 15//8
f 22//9 19//9 14//9
f 21//10 17//10 18//10
f 3//11 12//11 14//11
f 34//12 16//12 14//12
f 3//2 20//2 19//2
f 12//11 11//11 18//11
f 12//9 14//9 15//9
f 12//12 14//12 17//12
f 1//13 25//13 27//13
f 11//15 31//15 26//15
f 21//16 29//16 30//16
f 24//17 23//17 26//17
f 1//18 28//18 26//18
f 24//19 32//19 31//19
f 23//17 22//17 30//17
f 23//15 26//15 27//15
f 23//18 26//18 29//18
f 11//20 13//20 37//20
f 1//21 41//21 36//21
f 33//22 39//22 40//22
f 24//23 35//23 36//23
f 11//24 38//24 36//24
f 24//14 42//14 41//14
f 35//23 34//23 40//23
f 35//21 36//21 37//21
f 35//24 36//24 39//24
