# Blender v2.79 (sub 0) OBJ File: 'textStair.blend'
# www.blender.org
mtllib stair.mtl
o Cylinder
v 0.000000 -1.088588 -0.113816
v 0.000000 1.018092 -0.113816
v 0.022204 -1.088588 -0.111629
v 0.022204 1.018092 -0.111629
v 0.043555 -1.088588 -0.105152
v 0.043555 1.018092 -0.105152
v 0.063233 -1.088588 -0.094634
v 0.063233 1.018092 -0.094634
v 0.080480 -1.088588 -0.080480
v 0.080480 1.018092 -0.080480
v 0.094634 -1.088588 -0.063233
v 0.094634 1.018092 -0.063233
v 0.105152 -1.088588 -0.043555
v 0.105152 1.018092 -0.043555
v 0.111629 -1.088588 -0.022204
v 0.111629 1.018092 -0.022204
v 0.113816 -1.088588 -0.000000
v 0.113816 1.018092 -0.000000
v 0.111629 -1.088588 0.022204
v 0.111629 1.018092 0.022204
v 0.105152 -1.088588 0.043555
v 0.105152 1.018092 0.043555
v 0.094634 -1.088588 0.063233
v 0.094634 1.018092 0.063233
v 0.080480 -1.088588 0.080480
v 0.080480 1.018092 0.080480
v 0.063233 -1.088588 0.094634
v 0.063233 1.018092 0.094634
v 0.043555 -1.088588 0.105152
v 0.043555 1.018092 0.105152
v 0.022204 -1.088588 0.111629
v 0.022204 1.018092 0.111629
v -0.000000 -1.088588 0.113816
v -0.000000 1.018092 0.113816
v -0.022204 -1.088588 0.111629
v -0.022204 1.018092 0.111629
v -0.043555 -1.088588 0.105152
v -0.043555 1.018092 0.105152
v -0.063233 -1.088588 0.094634
v -0.063233 1.018092 0.094634
v -0.080480 -1.088588 0.080480
v -0.080480 1.018092 0.080480
v -0.094634 -1.088588 0.063233
v -0.094634 1.018092 0.063233
v -0.105152 -1.088588 0.043555
v -0.105152 1.018092 0.043555
v -0.111629 -1.088588 0.022204
v -0.111629 1.018092 0.022204
v -0.113816 -1.088588 -0.000000
v -0.113816 1.018092 -0.000000
v -0.111629 -1.088588 -0.022204
v -0.111629 1.018092 -0.022204
v -0.105152 -1.088588 -0.043556
v -0.105152 1.018092 -0.043556
v -0.094634 -1.088588 -0.063233
v -0.094634 1.018092 -0.063233
v -0.080480 -1.088588 -0.080480
v -0.080480 1.018092 -0.080480
v -0.063232 -1.088588 -0.094634
v -0.063232 1.018092 -0.094634
v -0.043555 -1.088588 -0.105152
v -0.043555 1.018092 -0.105152
v -0.022204 -1.088588 -0.111629
v -0.022204 1.018092 -0.111629
v -0.036477 0.813345 -0.034272
v -0.036477 1.037302 -0.034272
v -0.064643 0.813345 0.084200
v -0.064643 1.037302 0.084200
v -0.484389 0.813345 -0.292874
v -0.484389 1.037302 -0.292874
v -0.573227 0.813345 0.096905
v -0.573227 1.037302 0.096905
v -0.026364 0.620931 -0.042545
v -0.026364 0.844889 -0.042545
v -0.084233 0.620931 0.064600
v -0.084233 0.844889 0.064600
v -0.392083 0.620931 -0.408264
v -0.392083 0.844889 -0.408264
v -0.578776 0.620931 -0.054759
v -0.578776 0.844889 -0.054759
v -0.014454 0.428518 -0.047919
v -0.014454 0.652475 -0.047919
v -0.098083 0.428518 0.040597
v -0.098083 0.652475 0.040597
v -0.273056 0.428518 -0.495831
v -0.273056 0.652475 -0.495831
v -0.544882 0.428518 -0.202691
v -0.544882 0.652475 -0.202691
v -0.001559 0.236104 -0.050027
v -0.001559 0.460061 -0.050027
v -0.105248 0.236104 0.013828
v -0.105248 0.460061 0.013828
v -0.135422 0.236104 -0.549608
v -0.135422 0.460061 -0.549608
v -0.473855 0.236104 -0.336810
v -0.473855 0.460061 -0.336810
v 0.011442 0.043690 -0.048726
v 0.011442 0.267647 -0.048726
v -0.105241 0.043690 -0.013883
v -0.105241 0.267647 -0.013883
v 0.011442 0.043690 -0.565930
v 0.011442 0.267647 -0.565930
v -0.370536 0.043690 -0.447976
v -0.370536 0.267647 -0.447976
v 0.023663 -0.148724 -0.044104
v 0.023663 0.075233 -0.044104
v -0.098062 -0.148724 -0.040648
v -0.098062 0.075233 -0.040648
v 0.157526 -0.148724 -0.543685
v 0.157526 0.075233 -0.543685
v -0.241965 -0.148724 -0.528614
v -0.241965 0.075233 -0.528614
v 0.034272 -0.341138 -0.036477
v 0.034272 -0.117181 -0.036477
v -0.084200 -0.341138 -0.064643
v -0.084200 -0.117181 -0.064643
v 0.292874 -0.341138 -0.484389
v 0.292874 -0.117181 -0.484389
v -0.096905 -0.341138 -0.573227
v -0.096905 -0.117181 -0.573227
v 0.042545 -0.533552 -0.026364
v 0.042545 -0.309594 -0.026364
v -0.064600 -0.533552 -0.084233
v -0.064600 -0.309594 -0.084233
v 0.408264 -0.533552 -0.392083
v 0.408264 -0.309594 -0.392083
v 0.054759 -0.533552 -0.578776
v 0.054759 -0.309594 -0.578776
v 0.047919 -0.725965 -0.014454
v 0.047919 -0.502008 -0.014454
v -0.040597 -0.725965 -0.098083
v -0.040597 -0.502008 -0.098083
v 0.495831 -0.725965 -0.273056
v 0.495831 -0.502008 -0.273056
v 0.202691 -0.725965 -0.544882
v 0.202691 -0.502008 -0.544882
v 0.050027 -0.918379 -0.001559
v 0.050027 -0.694422 -0.001559
v -0.013828 -0.918379 -0.105248
v -0.013828 -0.694422 -0.105248
v 0.549608 -0.918379 -0.135422
v 0.549608 -0.694422 -0.135422
v 0.336810 -0.918379 -0.473855
v 0.336810 -0.694422 -0.473855
v 0.048726 -1.110793 0.011442
v 0.048726 -0.886836 0.011442
v 0.013883 -1.110793 -0.105241
v 0.013883 -0.886836 -0.105241
v 0.565930 -1.110793 0.011442
v 0.565930 -0.886836 0.011442
v 0.447976 -1.110793 -0.370536
v 0.447976 -0.886836 -0.370536
vn 0.0980 0.0000 -0.9952
vn 0.2903 0.0000 -0.9569
vn 0.4714 0.0000 -0.8819
vn 0.6344 0.0000 -0.7730
vn 0.7730 0.0000 -0.6344
vn 0.8819 0.0000 -0.4714
vn 0.9569 0.0000 -0.2903
vn 0.9952 0.0000 -0.0980
vn 0.9952 0.0000 0.0980
vn 0.9569 0.0000 0.2903
vn 0.8819 0.0000 0.4714
vn 0.7730 0.0000 0.6344
vn 0.6344 0.0000 0.7730
vn 0.4714 0.0000 0.8819
vn 0.2903 0.0000 0.9569
vn 0.0980 0.0000 0.9952
vn -0.0980 0.0000 0.9952
vn -0.2903 0.0000 0.9569
vn -0.4714 0.0000 0.8819
vn -0.6344 0.0000 0.7730
vn -0.7730 0.0000 0.6344
vn -0.8819 0.0000 0.4714
vn -0.9569 0.0000 0.2903
vn -0.9952 0.0000 0.0980
vn -0.9952 0.0000 -0.0980
vn -0.9569 0.0000 -0.2903
vn -0.8819 0.0000 -0.4714
vn -0.7730 0.0000 -0.6344
vn -0.6344 0.0000 -0.7730
vn -0.4714 0.0000 -0.8819
vn 0.0000 1.0000 0.0000
vn -0.2903 0.0000 -0.9569
vn -0.0980 0.0000 -0.9952
vn 0.0000 -1.0000 0.0000
vn 0.9729 0.0000 0.2313
vn 0.0250 0.0000 0.9997
vn -0.9750 0.0000 -0.2222
vn 0.5000 0.0000 -0.8660
vn 0.8799 0.0000 0.4752
vn -0.2346 0.0000 0.9721
vn -0.8843 0.0000 -0.4670
vn 0.7071 0.0000 -0.7071
vn 0.7269 0.0000 0.6868
vn -0.4782 0.0000 0.8782
vn -0.7333 0.0000 -0.6799
vn 0.8660 0.0000 -0.5000
vn 0.5244 0.0000 0.8515
vn -0.6892 0.0000 0.7245
vn -0.5323 0.0000 -0.8466
vn 0.9659 0.0000 -0.2588
vn 0.2861 0.0000 0.9582
vn -0.8533 0.0000 0.5215
vn -0.2951 0.0000 -0.9555
vn 1.0000 0.0000 0.0000
vn 0.0284 0.0000 0.9996
vn -0.9592 0.0000 0.2829
vn -0.0377 0.0000 -0.9993
vn 0.9659 0.0000 0.2588
vn -0.2313 0.0000 0.9729
vn -0.9997 0.0000 0.0250
vn 0.2222 0.0000 -0.9750
vn 0.8660 0.0000 0.5000
vn -0.4752 0.0000 0.8799
vn -0.9721 0.0000 -0.2346
vn 0.4670 0.0000 -0.8843
vn 0.7071 0.0000 0.7071
vn -0.6868 0.0000 0.7269
vn -0.8782 0.0000 -0.4782
vn 0.6799 0.0000 -0.7333
vn 0.5000 0.0000 0.8660
vn -0.8515 0.0000 0.5244
vn -0.7245 0.0000 -0.6892
vn 0.8466 0.0000 -0.5323
vn 0.2588 0.0000 0.9659
vn -0.9582 0.0000 0.2861
vn -0.5215 0.0000 -0.8533
vn 0.9555 0.0000 -0.2951
vn 0.0000 0.0000 1.0000
usemtl None
s off
f 2//1 3//1 1//1
f 4//2 5//2 3//2
f 6//3 7//3 5//3
f 8//4 9//4 7//4
f 10//5 11//5 9//5
f 12//6 13//6 11//6
f 14//7 15//7 13//7
f 16//8 17//8 15//8
f 18//9 19//9 17//9
f 20//10 21//10 19//10
f 22//11 23//11 21//11
f 24//12 25//12 23//12
f 26//13 27//13 25//13
f 28//14 29//14 27//14
f 30//15 31//15 29//15
f 32//16 33//16 31//16
f 34//17 35//17 33//17
f 36//18 37//18 35//18
f 38//19 39//19 37//19
f 40//20 41//20 39//20
f 42//21 43//21 41//21
f 44//22 45//22 43//22
f 46//23 47//23 45//23
f 48//24 49//24 47//24
f 50//25 51//25 49//25
f 52//26 53//26 51//26
f 54//27 55//27 53//27
f 56//28 57//28 55//28
f 58//29 59//29 57//29
f 60//30 61//30 59//30
f 54//31 38//31 22//31
f 62//32 63//32 61//32
f 64//33 1//33 63//33
f 15//34 31//34 47//34
f 66//35 67//35 65//35
f 68//36 71//36 67//36
f 72//37 69//37 71//37
f 70//38 65//38 69//38
f 71//34 65//34 67//34
f 72//31 66//31 70//31
f 74//39 75//39 73//39
f 76//40 79//40 75//40
f 80//41 77//41 79//41
f 78//42 73//42 77//42
f 79//34 73//34 75//34
f 80//31 74//31 78//31
f 82//43 83//43 81//43
f 84//44 87//44 83//44
f 88//45 85//45 87//45
f 86//46 81//46 85//46
f 87//34 81//34 83//34
f 88//31 82//31 86//31
f 90//47 91//47 89//47
f 92//48 95//48 91//48
f 96//49 93//49 95//49
f 94//50 89//50 93//50
f 95//34 89//34 91//34
f 96//31 90//31 94//31
f 98//51 99//51 97//51
f 100//52 103//52 99//52
f 104//53 101//53 103//53
f 102//54 97//54 101//54
f 103//34 97//34 99//34
f 104//31 98//31 102//31
f 106//55 107//55 105//55
f 108//56 111//56 107//56
f 112//57 109//57 111//57
f 110//58 105//58 109//58
f 111//34 105//34 107//34
f 112//31 106//31 110//31
f 114//59 115//59 113//59
f 116//60 119//60 115//60
f 120//61 117//61 119//61
f 118//62 113//62 117//62
f 119//34 113//34 115//34
f 120//31 114//31 118//31
f 122//63 123//63 121//63
f 124//64 127//64 123//64
f 128//65 125//65 127//65
f 126//66 121//66 125//66
f 127//34 121//34 123//34
f 128//31 122//31 126//31
f 130//67 131//67 129//67
f 132//68 135//68 131//68
f 136//69 133//69 135//69
f 134//70 129//70 133//70
f 135//34 129//34 131//34
f 136//31 130//31 134//31
f 138//71 139//71 137//71
f 140//72 143//72 139//72
f 144//73 141//73 143//73
f 142//74 137//74 141//74
f 143//34 137//34 139//34
f 144//31 138//31 142//31
f 146//75 147//75 145//75
f 148//76 151//76 147//76
f 152//77 149//77 151//77
f 150//78 145//78 149//78
f 151//34 145//34 147//34
f 152//31 146//31 150//31
f 2//1 4//1 3//1
f 4//2 6//2 5//2
f 6//3 8//3 7//3
f 8//4 10//4 9//4
f 10//5 12//5 11//5
f 12//6 14//6 13//6
f 14//7 16//7 15//7
f 16//8 18//8 17//8
f 18//9 20//9 19//9
f 20//10 22//10 21//10
f 22//11 24//11 23//11
f 24//12 26//12 25//12
f 26//13 28//13 27//13
f 28//14 30//14 29//14
f 30//15 32//15 31//15
f 32//16 34//16 33//16
f 34//17 36//17 35//17
f 36//18 38//18 37//18
f 38//19 40//19 39//19
f 40//20 42//20 41//20
f 42//21 44//21 43//21
f 44//22 46//22 45//22
f 46//23 48//23 47//23
f 48//24 50//24 49//24
f 50//25 52//25 51//25
f 52//26 54//26 53//26
f 54//27 56//27 55//27
f 56//28 58//28 57//28
f 58//29 60//29 59//29
f 60//30 62//30 61//30
f 6//31 4//31 2//31
f 2//31 64//31 6//31
f 64//31 62//31 6//31
f 62//31 60//31 58//31
f 58//31 56//31 54//31
f 54//31 52//31 50//31
f 50//31 48//31 54//31
f 48//31 46//31 54//31
f 46//31 44//31 38//31
f 44//31 42//31 38//31
f 42//31 40//31 38//31
f 38//31 36//31 34//31
f 34//31 32//31 30//31
f 30//31 28//31 26//31
f 26//31 24//31 22//31
f 22//31 20//31 18//31
f 18//31 16//31 22//31
f 16//31 14//31 22//31
f 14//31 12//31 10//31
f 10//31 8//31 6//31
f 62//31 58//31 6//31
f 58//31 54//31 6//31
f 38//31 34//31 22//31
f 34//31 30//31 22//31
f 30//31 26//31 22//31
f 14//31 10//31 22//31
f 10//31 6//31 22//31
f 54//31 46//31 38//31
f 6//31 54//31 22//31
f 62//32 64//32 63//32
f 64//33 2//33 1//33
f 63//34 1//34 3//34
f 3//34 5//34 7//34
f 7//34 9//34 11//34
f 11//34 13//34 7//34
f 13//34 15//34 7//34
f 15//34 17//34 19//34
f 19//34 21//34 15//34
f 21//34 23//34 15//34
f 23//34 25//34 31//34
f 25//34 27//34 31//34
f 27//34 29//34 31//34
f 31//34 33//34 35//34
f 35//34 37//34 39//34
f 39//34 41//34 43//34
f 43//34 45//34 47//34
f 47//34 49//34 51//34
f 51//34 53//34 55//34
f 55//34 57//34 63//34
f 57//34 59//34 63//34
f 59//34 61//34 63//34
f 63//34 3//34 7//34
f 31//34 35//34 47//34
f 35//34 39//34 47//34
f 39//34 43//34 47//34
f 47//34 51//34 63//34
f 51//34 55//34 63//34
f 63//34 7//34 15//34
f 15//34 23//34 31//34
f 63//34 15//34 47//34
f 66//35 68//35 67//35
f 68//36 72//36 71//36
f 72//37 70//37 69//37
f 70//38 66//38 65//38
f 71//34 69//34 65//34
f 72//31 68//31 66//31
f 74//39 76//39 75//39
f 76//40 80//40 79//40
f 80//41 78//41 77//41
f 78//42 74//42 73//42
f 79//34 77//34 73//34
f 80//31 76//31 74//31
f 82//43 84//43 83//43
f 84//44 88//44 87//44
f 88//45 86//45 85//45
f 86//46 82//46 81//46
f 87//34 85//34 81//34
f 88//31 84//31 82//31
f 90//47 92//47 91//47
f 92//48 96//48 95//48
f 96//49 94//49 93//49
f 94//50 90//50 89//50
f 95//34 93//34 89//34
f 96//31 92//31 90//31
f 98//51 100//51 99//51
f 100//52 104//52 103//52
f 104//53 102//53 101//53
f 102//54 98//54 97//54
f 103//34 101//34 97//34
f 104//31 100//31 98//31
f 106//55 108//55 107//55
f 108//56 112//56 111//56
f 112//57 110//57 109//57
f 110//58 106//58 105//58
f 111//34 109//34 105//34
f 112//31 108//31 106//31
f 114//59 116//59 115//59
f 116//60 120//60 119//60
f 120//61 118//61 117//61
f 118//62 114//62 113//62
f 119//34 117//34 113//34
f 120//31 116//31 114//31
f 122//63 124//63 123//63
f 124//64 128//64 127//64
f 128//65 126//65 125//65
f 126//66 122//66 121//66
f 127//34 125//34 121//34
f 128//31 124//31 122//31
f 130//67 132//67 131//67
f 132//68 136//68 135//68
f 136//69 134//69 133//69
f 134//70 130//70 129//70
f 135//34 133//34 129//34
f 136//31 132//31 130//31
f 138//71 140//71 139//71
f 140//72 144//72 143//72
f 144//73 142//73 141//73
f 142//74 138//74 137//74
f 143//34 141//34 137//34
f 144//31 140//31 138//31
f 146//75 148//75 147//75
f 148//76 152//76 151//76
f 152//77 150//77 149//77
f 150//78 146//78 145//78
f 151//34 149//34 145//34
f 152//31 148//31 146//31
