# Blender v2.81 (sub 16) OBJ File: ''
# www.blender.org
mtllib tetraplineTex2020.mtl
o Cube.002_Cube
v 0.000000 0.547018 0.273509
v -0.820527 0.820527 0.000000
v -1.641100 -0.000000 0.820527
v 0.000000 -0.000000 0.820527
v 0.000000 -0.547018 0.273509
v 0.820527 -0.820527 -0.000000
v 0.820527 -0.998022 0.177494
v 0.000000 -0.724513 0.451004
v 0.547018 0.000000 -0.273509
v 0.000000 0.000000 -0.820527
v -0.547018 0.000000 -0.273509
v -0.000000 1.641070 -0.820527
v -0.998022 0.820527 -0.177494
v -0.724513 0.000000 -0.451004
v 0.998022 -0.820527 -0.177494
v 0.724513 0.000000 -0.451004
v 0.177494 0.000000 -0.998022
v 1.640492 0.177494 0.998022
v 0.820527 0.998022 0.177494
v 0.000000 0.724513 0.451004
v 0.000000 0.177494 0.998022
v 0.000000 1.818549 -0.643033
v -0.820527 0.998022 0.177494
v -0.000001 -1.641055 -0.820527
v -1.640492 -0.177493 0.998022
v -0.820527 -0.998022 0.177494
v 0.000000 -0.177494 0.998022
v -0.000001 -1.818549 -0.643033
v 0.820527 0.820528 0.000000
v 1.641055 -0.000001 0.820527
v 0.177494 1.640492 -0.998022
v 0.998022 0.820527 -0.177494
v 1.818549 -0.000001 0.643033
v -0.820527 -0.820528 -0.000000
v -0.177494 -1.640492 -0.998022
v -0.998022 -0.820527 -0.177494
v -0.177494 0.000000 -0.998022
v -1.818549 -0.000000 0.643033
vt 0.501120 0.497939
vt 0.323293 0.699129
vt 0.155570 0.497136
vt 0.323293 0.699129
vt 0.155570 0.497136
vt 0.437250 0.024554
vt 0.437250 0.024554
vt 0.437250 0.024554
vt 0.437250 0.024554
vt 0.254316 0.033334
vt 0.437250 0.024554
vt 0.501120 0.497939
vt 0.155570 0.497136
vt 0.155570 0.497136
vt 0.437250 0.024554
vt 0.437250 0.024554
vt 0.437250 0.024554
vt 0.437250 0.024554
vt 0.254316 0.033334
vt 0.437250 0.024554
vt 0.000000 0.000000
vt 0.500744 0.596599
vt 0.275048 0.728515
vt 0.000000 0.000000
vt 0.000000 0.000000
vt 0.000000 0.000000
vt 0.499706 0.594526
vt 0.000000 0.000000
vt 0.100025 0.175577
vt 0.098906 0.078135
vt 0.500744 0.596599
vt 0.500744 0.596599
vt 0.500744 0.596599
vt 0.000000 0.000000
vt 0.000000 0.000000
vt 0.000000 0.000000
vt 0.274108 0.275240
vt 0.000000 0.000000
vt 0.000000 0.000000
vt 0.499706 0.594526
vt 0.498700 0.898405
vt 0.000000 0.000000
vt 0.102369 0.526853
vt 0.671074 0.695019
vt 0.098906 0.078135
vt 0.439968 0.079958
vt 0.275048 0.728515
vt 0.101534 0.827823
vt 0.499706 0.594526
vt 0.671074 0.695019
vt 0.498700 0.898405
vt 0.274108 0.275240
vt 0.098906 0.078135
vt 0.439968 0.079958
vt 0.102369 0.526853
vt 0.275048 0.728515
vt 0.101534 0.827823
vt 0.104560 0.078135
vt 0.437250 0.024554
vt 0.108254 0.071136
vt 0.437250 0.024554
vt 0.105804 0.031321
vt 0.100025 0.175577
vt 0.302692 0.074315
vt 0.437250 0.024554
vt 0.167498 0.037495
vt 0.202258 0.072606
vt 0.100791 0.022889
vt 0.498700 0.898405
vt 0.274108 0.275240
vt 0.439968 0.079958
vt 0.102369 0.526853
vt 0.101534 0.827823
vt 0.499706 0.594526
vt 0.498700 0.898405
vt 0.274108 0.275240
vt 0.098906 0.078135
vt 0.439968 0.079958
vt 0.102369 0.526853
vt 0.275048 0.728515
vt 0.101534 0.827823
vt 0.104560 0.078135
vt 0.437250 0.024554
vt 0.108254 0.071136
vt 0.105804 0.031321
vt 0.100025 0.175577
vt 0.302692 0.074315
vt 0.437250 0.024554
vt 0.167498 0.037495
vt 0.202258 0.072606
vt 0.100791 0.022889
vt 0.000000 0.000000
vt 0.100025 0.175577
vt 0.000000 0.000000
vt 0.000000 0.000000
vn 0.0000 0.7071 0.7071
vn -0.0000 -0.7071 0.7071
vn 0.4264 0.6396 0.6396
vn 1.0000 0.0000 0.0000
vn 0.7071 -0.0000 -0.7071
vn -0.7071 -0.0000 -0.7071
vn 0.6396 0.4264 -0.6396
vn 0.0000 1.0000 0.0000
vn -0.6396 -0.4264 -0.6396
vn 0.0000 -1.0000 -0.0000
vn -0.4264 0.6396 -0.6396
vn -0.8165 0.4083 -0.4082
vn 0.8471 0.4849 0.2174
vn -0.2047 0.9780 0.0410
vn 0.5461 0.7987 0.2526
vn -0.5774 -0.0000 0.8165
vn 0.7400 0.1193 0.6620
vn -0.2231 0.7917 0.5687
vn -0.7954 0.2541 0.5502
vn -0.3461 -0.1062 0.9322
vn -0.4445 -0.8900 -0.1014
vn -0.7071 -0.7071 -0.0000
vn 0.0726 -0.9587 -0.2750
vn -0.2061 -0.9687 -0.1384
vn 0.5774 0.0000 0.8165
vn -0.7399 -0.1193 0.6620
vn -0.2543 -0.9499 -0.1818
vn 0.6103 -0.7749 0.1645
vn -0.8117 -0.4130 0.4130
vn 0.6248 0.5521 0.5521
vn -0.9587 0.0725 0.2750
vn 0.3709 -0.9152 0.1575
vn 0.8165 -0.4082 -0.4082
vn 0.8900 0.4445 0.1014
vn 0.9587 -0.0726 0.2750
vn 0.9687 0.2061 0.1384
vn 0.4506 -0.7055 -0.5470
vn 0.1193 0.7400 -0.6620
vn 0.9499 0.2543 0.1818
vn 0.7749 -0.6103 -0.1645
vn 0.4130 0.8117 -0.4130
vn -0.8900 -0.4445 0.1014
vn -0.9687 -0.2061 0.1384
vn 0.0000 0.5774 -0.8165
vn -0.1193 -0.7400 -0.6620
vn -0.9499 -0.2543 0.1818
vn -0.7749 0.6103 -0.1645
vn -0.4130 -0.8117 -0.4130
vn 0.5521 0.6248 -0.5521
vn -0.9152 0.3709 -0.1575
vn -0.4083 0.8165 0.4082
vn 0.9152 -0.3709 -0.1575
vn 0.4082 -0.8165 0.4082
vn -0.6155 0.5573 0.5573
vn -0.4264 -0.6396 0.6396
vn -0.9468 -0.2275 0.2275
vn -1.0000 0.0000 0.0000
vn -0.7071 -0.5000 0.5000
usemtl None
s off
f 4/1/1 2/2/1 3/3/1
f 4/1/2 6/4/2 30/5/2
f 7/6/3 5/7/3 8/8/3
f 6/9/3 5/7/3 7/10/3
f 5/7/4 4/11/4 8/8/4
f 10/12/5 6/4/5 24/13/5
f 10/12/6 2/2/6 12/14/6
f 13/15/7 11/16/7 14/17/7
f 2/18/7 11/16/7 13/19/7
f 11/16/8 10/20/8 14/17/8
f 6/21/9 9/22/9 15/23/9
f 15/24/9 9/25/9 16/26/9
f 9/27/10 10/28/10 16/29/10
f 10/28/6 12/14/6 17/30/6
f 4/1/1 1/31/1 2/2/1
f 4/1/2 5/32/2 6/4/2
f 10/12/5 9/22/5 6/4/5
f 10/12/6 11/33/6 2/2/6
f 20/34/11 19/35/11 1/36/11
f 1/36/11 19/37/11 29/38/11
f 20/34/4 1/36/4 22/39/4
f 22/39/4 1/40/4 12/41/4
f 2/42/12 22/43/12 12/41/12
s 1
f 1/40/1 29/44/13 12/41/14
f 19/37/15 21/45/16 18/46/17
f 22/43/18 23/47/19 20/48/20
f 5/49/21 34/50/22 24/51/23
f 26/52/24 27/53/25 25/54/26
f 28/55/27 7/56/28 8/57/29
f 27/58/25 4/11/30 25/54/26
f 25/54/26 4/11/30 3/59/31
f 25/54/26 3/59/31 26/60/24
f 26/60/24 3/59/31 34/61/22
f 5/62/21 26/60/24 34/61/22
f 5/62/21 8/63/32 26/60/24
f 24/64/23 28/65/27 5/62/21
f 8/66/29 5/62/21 28/67/27
f 6/9/33 28/67/27 24/64/23
f 28/67/27 6/9/33 7/10/28
f 27/68/25 8/8/32 4/11/30
f 9/27/34 29/44/13 30/69/35
f 32/70/36 17/30/37 31/71/38
f 33/72/39 15/23/40 16/73/41
f 11/74/42 34/50/22 3/75/31
f 36/76/43 37/77/44 35/78/45
f 38/79/46 13/80/47 14/81/48
f 37/82/44 10/20/49 35/78/45
f 35/78/45 10/20/49 24/83/23
f 35/78/45 24/83/23 36/84/43
f 36/84/43 24/83/23 34/61/22
f 11/85/42 36/84/43 34/61/22
f 11/85/42 14/86/50 36/84/43
f 3/87/31 38/88/46 11/85/42
f 14/89/48 11/85/42 38/90/46
f 2/18/51 38/90/46 3/87/31
f 38/90/46 2/18/51 13/19/47
f 37/91/44 14/17/50 10/20/49
f 12/92/14 32/70/36 31/71/38
f 32/70/36 12/92/14 29/38/13
f 9/27/34 32/70/36 29/38/13
f 9/27/34 16/29/52 32/70/36
f 16/73/41 9/27/34 33/72/39
f 30/69/35 33/72/39 9/27/34
f 33/72/39 6/21/53 15/23/40
f 6/21/53 33/72/39 30/69/35
f 16/29/52 10/28/10 17/30/37
f 17/30/37 12/14/14 31/71/38
f 19/37/15 20/93/54 21/45/16
f 26/52/24 8/63/32 27/53/25
f 32/70/36 16/29/52 17/30/37
f 36/76/43 14/86/50 37/77/44
f 23/47/19 1/36/55 20/48/20
f 2/42/56 1/36/55 23/47/19
f 1/36/57 4/94/58 20/48/54
f 20/48/54 4/94/58 21/45/16
f 21/45/16 4/94/58 18/46/17
f 4/94/58 30/95/35 18/46/17
f 30/95/35 19/37/15 18/46/17
f 30/95/35 29/38/13 19/37/15
f 2/42/56 23/47/19 22/43/18
