# Blender v2.79 (sub 0) OBJ File: 'TetraSquare.blend'
# www.blender.org
mtllib TetraSquare.mtl
o Cube.006
v -1.100678 0.899322 0.100000
v -1.100678 -0.899322 0.100000
v 1.100000 0.900000 0.100000
v 1.100000 -0.900000 0.100000
v 0.900000 1.100000 -0.100000
v -0.900555 1.099445 -0.100000
v -0.900555 -0.900555 -0.100000
v 0.900000 -0.372727 -0.100000
v 0.900000 -1.100000 -0.100000
v -0.900555 -1.099445 -0.100000
v -0.872566 0.872566 0.100000
v -0.872566 0.872566 -0.100000
v 0.872566 0.872566 0.100000
v 0.872566 0.872566 -0.100000
v -0.872566 -0.872566 0.100000
v -0.872566 -0.872566 -0.100000
v 0.872566 -0.872566 0.100000
v 0.872566 -0.872566 -0.100000
v 0.872566 0.714045 0.100000
vt 0.449661 0.000000
vt 0.549723 0.000000
vt 0.549722 0.500000
vt 0.450277 0.450277
vt 0.550000 0.000000
vt 0.550339 0.550339
vt 0.450277 0.000000
vt 0.550000 0.550000
vt 0.450000 0.450000
vt 0.631818 0.450000
vt 1.000000 0.550000
vt 0.550000 0.550000
vt 0.549723 0.549723
vt 0.449661 0.449661
vt 0.450000 0.000000
vt 0.550339 0.000000
vt 0.450000 0.450000
vt 1.000000 0.450000
vt 0.000000 0.000000
vt 0.000000 0.000000
vt 0.000000 0.000000
vt 0.000000 0.000000
vt 0.000000 0.000000
vt 0.000000 0.000000
vt 0.000000 0.000000
vt 0.000000 0.000000
vt 0.000000 0.000000
vt 0.000000 0.000000
vt 0.000000 0.000000
vt 0.000000 0.000000
vt 0.000000 0.000000
vt 0.000000 0.000000
vt 0.000000 0.000000
vt 0.000000 0.000000
vt 0.000000 0.000000
vt 0.000000 0.000000
vt 0.000000 0.000000
vn -0.8142 0.3556 -0.4589
vn -0.3559 0.8142 0.4587
vn -0.7069 -0.0000 -0.7073
vn -0.3559 -0.8142 0.4587
vn 0.8143 -0.3559 -0.4584
vn -0.8142 -0.3556 -0.4589
vn 0.8143 0.3559 -0.4584
vn 0.3557 0.8143 0.4587
vn 0.7071 0.0000 -0.7071
vn 0.3557 -0.8143 0.4587
vn 0.0000 0.0000 1.0000
vn 0.0000 -0.0000 -1.0000
vn -1.0000 -0.0000 0.0000
vn 1.0000 0.0000 0.0000
vn 0.0000 1.0000 0.0000
vn 0.0000 -1.0000 0.0000
usemtl Material.007
s 1
f 1/1/1 6/2/2 7/3/3
f 10/4/4 4/5/5 2/6/6
f 6/7/2 3/8/7 5/9/8
f 8/10/9 3/11/7 4/12/5
f 10/13/4 2/14/6 7/3/3
f 2/14/6 1/1/1 7/3/3
f 10/4/4 9/15/10 4/5/5
f 6/7/2 1/16/1 3/8/7
f 4/12/5 9/17/10 8/10/9
f 8/10/9 5/18/8 3/11/7
usemtl Material.007_NONE
s off
f 11/19/11 13/20/11 3/21/11
f 8/22/12 14/23/12 5/24/12
f 19/25/13 13/20/13 14/23/13
f 10/26/12 7/27/12 16/28/12
f 15/29/14 12/30/14 11/19/14
f 4/31/11 19/25/11 17/32/11
f 15/29/15 18/33/15 16/28/15
f 13/20/16 12/30/16 14/23/16
f 1/34/11 2/35/11 15/29/11
f 1/34/11 15/29/11 11/19/11
f 13/20/11 19/25/11 3/21/11
f 1/34/11 11/19/11 3/21/11
f 8/22/12 9/36/12 18/33/12
f 14/23/12 12/30/12 5/24/12
f 12/30/12 6/37/12 5/24/12
f 8/22/12 18/33/12 14/23/12
f 14/23/13 18/33/13 19/25/13
f 18/33/13 17/32/13 19/25/13
f 7/27/12 6/37/12 12/30/12
f 16/28/12 18/33/12 9/36/12
f 7/27/12 12/30/12 16/28/12
f 9/36/12 10/26/12 16/28/12
f 15/29/14 16/28/14 12/30/14
f 4/31/11 3/21/11 19/25/11
f 17/32/11 15/29/11 4/31/11
f 15/29/11 2/35/11 4/31/11
f 15/29/15 17/32/15 18/33/15
f 13/20/16 11/19/16 12/30/16
