# Blender v2.78 (sub 0) OBJ File: 'SBtrox3.blend'
# www.blender.org
mtllib tox.mtl
o Cube
v -0.000001 2.010000 -1.010000
v 2.000000 0.010001 0.990000
v -2.000000 0.010000 0.990000
v 0.000000 0.010000 0.990000
v 0.034471 0.531678 0.468322
v -1.000000 1.010000 -0.010000
v 1.000000 1.010000 -0.010000
v -2.000000 -0.000000 1.000000
v 0.034471 0.521678 0.478322
v 2.013975 0.219719 1.124612
v 0.013975 0.219719 1.124612
v 0.063506 0.720087 0.624420
v 1.013975 1.219719 0.124612
v -0.000001 2.215022 -0.888387
v 0.019392 0.746922 0.578697
v -1.000001 1.215022 0.111613
v -0.000000 -2.010000 -1.010000
v -2.000000 -0.010000 0.990000
v 2.000000 -0.010000 0.990000
v 0.000000 -0.010000 0.990000
v -0.034472 -0.531678 0.468322
v 1.000000 -1.010000 -0.010000
v -1.000000 -1.010000 -0.010000
v -0.000000 -2.000000 -1.000000
v 0.000000 -0.000000 1.000000
v -0.034472 -0.521678 0.478322
v -2.013975 -0.219719 1.124612
v -0.013975 -0.219719 1.124612
v -0.063506 -0.720087 0.624421
v -1.013975 -1.219719 0.124612
v 0.000000 -2.215022 -0.888387
v -0.019392 -0.746922 0.578697
v 1.000001 -1.215022 0.111613
v 2.010000 -0.000001 1.010000
v 0.010001 2.000000 -0.990000
v 0.009999 -2.000000 -0.990000
v 0.010000 -0.000000 -0.990000
v 0.531678 0.034471 -0.468322
v 1.010000 -1.000000 0.010000
v 1.010000 1.000000 0.010000
v 2.000000 -0.000001 1.000000
v 0.000001 2.000000 -1.000000
v 0.000000 -0.000000 -1.000000
v 0.521678 0.034471 -0.478322
v 1.000000 -1.000000 0.000000
v 1.000000 1.000000 0.000000
v 0.219719 2.013975 -1.124612
v 0.219719 0.013975 -1.124612
v 0.720087 0.063506 -0.624421
v 1.219719 1.013975 -0.124612
v 2.215022 -0.000001 0.888387
v 0.746922 0.019392 -0.578697
v 1.215022 -1.000001 -0.111613
v -2.010000 0.000000 1.010000
v -0.010000 -2.000000 -0.990000
v -0.010000 2.000000 -0.990000
v -0.010000 0.000000 -0.990000
v -0.531678 -0.034471 -0.468322
v -1.010000 1.000000 0.010000
v -1.010000 -1.000000 0.010000
v -0.521678 -0.034471 -0.478322
v -1.000000 1.000000 0.000000
v -1.000000 -1.000000 0.000000
v -0.219719 -2.013975 -1.124612
v -0.219719 -0.013975 -1.124612
v -0.720087 -0.063506 -0.624420
v -1.219719 -1.013975 -0.124612
v -2.215022 0.000001 0.888387
v -0.746922 -0.019392 -0.578697
v -1.215022 1.000001 -0.111613
vn 0.0000 0.7071 0.7071
vn 0.7997 0.2569 -0.5427
vn -0.5959 0.5309 -0.6025
vn -0.9927 0.1115 0.0459
vn 0.0000 -0.4933 0.8698
vn -0.5231 -0.3759 0.7649
vn -0.8032 0.2745 -0.5287
vn 0.9999 0.0080 -0.0153
vn 0.0005 0.7069 0.7073
vn 0.0001 0.7071 0.7071
vn -0.0000 -0.7071 0.7071
vn -0.7997 -0.2569 -0.5427
vn 0.5959 -0.5309 -0.6025
vn 0.9927 -0.1115 0.0459
vn -0.0000 0.4933 0.8698
vn 0.5231 0.3759 0.7649
vn 0.8032 -0.2745 -0.5287
vn -0.9999 -0.0080 -0.0153
vn -0.0005 -0.7069 0.7073
vn -0.0001 -0.7071 0.7071
vn 0.7071 -0.0000 -0.7071
vn 0.2569 0.7997 0.5427
vn 0.5309 -0.5959 0.6025
vn 0.1115 -0.9927 -0.0459
vn -0.4933 0.0000 -0.8698
vn -0.3759 -0.5231 -0.7649
vn 0.2745 -0.8032 0.5287
vn 0.0080 0.9999 0.0153
vn 0.7069 0.0005 -0.7073
vn 0.7071 0.0001 -0.7071
vn -0.7071 0.0000 -0.7071
vn -0.2569 -0.7997 0.5427
vn -0.5309 0.5959 0.6025
vn -0.1115 0.9927 -0.0459
vn 0.4933 0.0000 -0.8698
vn 0.3759 0.5231 -0.7649
vn -0.2745 0.8032 0.5287
vn -0.0080 -0.9999 0.0153
vn -0.7069 -0.0005 -0.7073
vn -0.7071 -0.0001 -0.7071
vn -0.5634 0.4344 -0.7028
vn -0.9968 0.0762 -0.0225
vn -0.5290 -0.3910 0.7532
vn -0.8032 0.2744 -0.5287
vn 0.9980 0.0503 0.0371
vn -0.0000 0.7070 0.7072
vn 0.5634 -0.4344 -0.7028
vn 0.9968 -0.0762 -0.0225
vn 0.5290 0.3910 0.7532
vn -0.9980 -0.0503 0.0371
vn 0.0000 -0.7070 0.7072
vn 0.4344 -0.5634 0.7028
vn 0.0762 -0.9968 0.0225
vn -0.3910 -0.5290 -0.7532
vn 0.0503 0.9980 -0.0371
vn 0.7070 -0.0000 -0.7072
vn -0.4344 0.5634 0.7028
vn -0.0762 0.9968 0.0225
vn 0.3910 0.5290 -0.7532
vn -0.0503 -0.9980 -0.0371
vn -0.7070 0.0000 -0.7072
usemtl Material.002
s off
f 62//1 25//1 46//1
f 41//2 46//2 13//2
f 9//3 12//3 13//3
f 25//4 12//4 9//4
f 41//5 10//5 11//5
f 9//6 15//6 16//6
f 62//7 16//7 14//7
f 9//8 42//8 14//8
f 15//9 14//9 16//9
f 10//10 13//10 12//10
f 45//11 25//11 63//11
f 8//12 63//12 30//12
f 26//13 29//13 30//13
f 25//14 29//14 26//14
f 8//15 27//15 28//15
f 26//16 32//16 33//16
f 45//17 33//17 31//17
f 26//18 24//18 31//18
f 32//19 31//19 33//19
f 27//20 30//20 29//20
f 45//21 43//21 46//21
f 42//22 46//22 50//22
f 44//23 49//23 50//23
f 43//24 49//24 44//24
f 42//25 47//25 48//25
f 44//26 52//26 53//26
f 45//27 53//27 51//27
f 44//28 41//28 51//28
f 52//29 51//29 53//29
f 47//30 50//30 49//30
f 62//31 43//31 63//31
f 24//32 63//32 67//32
f 61//33 66//33 67//33
f 43//34 66//34 61//34
f 24//35 64//35 65//35
f 61//36 69//36 70//36
f 62//37 70//37 68//37
f 61//38 8//38 68//38
f 69//39 68//39 70//39
f 64//40 67//40 66//40
f 46//1 42//1 62//1
f 62//1 8//1 25//1
f 25//1 41//1 46//1
f 41//2 13//2 10//2
f 9//41 13//41 46//41
f 25//42 11//42 12//42
f 41//5 11//5 25//5
f 9//43 16//43 62//43
f 62//44 14//44 42//44
f 9//45 14//45 15//45
f 10//46 12//46 11//46
f 63//11 24//11 45//11
f 45//11 41//11 25//11
f 25//11 8//11 63//11
f 8//12 30//12 27//12
f 26//47 30//47 63//47
f 25//48 28//48 29//48
f 8//15 28//15 25//15
f 26//49 33//49 45//49
f 45//17 31//17 24//17
f 26//50 31//50 32//50
f 27//51 29//51 28//51
f 46//21 41//21 45//21
f 45//21 24//21 43//21
f 43//21 42//21 46//21
f 42//22 50//22 47//22
f 44//52 50//52 46//52
f 43//53 48//53 49//53
f 42//25 48//25 43//25
f 44//54 53//54 45//54
f 45//27 51//27 41//27
f 44//55 51//55 52//55
f 47//56 49//56 48//56
f 63//31 8//31 62//31
f 62//31 42//31 43//31
f 43//31 24//31 63//31
f 24//32 67//32 64//32
f 61//57 67//57 63//57
f 43//58 65//58 66//58
f 24//35 65//35 43//35
f 61//59 70//59 62//59
f 62//37 68//37 8//37
f 61//60 68//60 69//60
f 64//61 66//61 65//61
usemtl Material.003
f 6//1 4//1 7//1
f 22//11 20//11 23//11
f 39//21 37//21 40//21
f 59//31 57//31 60//31
f 7//1 1//1 6//1
f 6//1 3//1 4//1
f 4//1 2//1 7//1
f 23//11 17//11 22//11
f 22//11 19//11 20//11
f 20//11 18//11 23//11
f 40//21 34//21 39//21
f 39//21 36//21 37//21
f 37//21 35//21 40//21
f 60//31 54//31 59//31
f 59//31 56//31 57//31
f 57//31 55//31 60//31
l 5 4
l 1 5
l 5 7
l 5 6
l 21 20
l 17 21
l 21 23
l 21 22
l 38 37
l 34 38
l 38 40
l 38 39
l 58 57
l 54 58
l 58 60
l 58 59
